<svg version="1" xmlns="http://www.w3.org/2000/svg" width="1093.333" height="1093.333" viewBox="0 0 820.000000 820.000000"><path d="M686.8 62.7c-2.5 2.7-3.6 6.4-3.1 10.1.5 2.9.3 3.3-2.6 3.8-3.7.8-5.5 3.6-5.2 8.2.2 3 0 3.2-1.8 2.3-2.9-1.6-3.9-1.4-4.7 1.1-.6 2.1-.8 1.9-2.1-1.6-2.3-6.8-4-7.9-15-9.3-3.6-.4-4.3-.2-5.8 2.1-1 1.5-2 4.8-2.3 7.4-.2 2.6-.9 5.2-1.4 5.9-.7.8-.1 3.1 1.6 6.9 1.5 3.1 2.5 5.8 2.4 5.9-.2.1-2.5.7-5.1 1.4-4.3 1-5.1 1-7.4-.8-3.8-3.1-9.3-3.8-11-1.6-2.6 3.6-.6 12.4 3.2 13.8 2.1.9 1.9 3.4-.5 4.7-2.9 1.5-2.5 5.8.9 11.2 2.9 4.6 10.6 10.8 13.4 10.8.8 0 2 .7 2.7 1.5 1.1 1.3 1.1 2 .1 3.9-.7 1.3-1.1 3.2-.9 4.2.4 2.2 7.7 5.3 12.9 5.3 4.6.1 6.8 2.4 5 5.2-1.9 3.1-.4 5.7 3.7 6.9 2 .5 4.2 1 4.8 1 1.4 0 3.5 7.6 2.7 9.6-.3.8-.1 2 .5 2.7.5.6 1.3 2.2 1.7 3.5.7 2.3.7 2.3-2.5.7-2.7-1.4-4-1.5-7.4-.6-4.5 1.2-5 .9-9.9-6.9-1.9-3-2.9-3.5-6.5-3.8-3.4-.3-4.7.2-6.8 2.3-2.1 2.1-2.4 3.1-1.9 5.7.7 2.8-.2 2.2-10.4-7-57.9-52-122-79.9-198.6-86.3-17-1.4-48-.6-65.5 1.6-75.5 9.9-144.6 44.7-196 98.8l-8.5 8.9-1-10.6-1-10.5-11.7 8.4c-11.6 8.5-21 17-26.2 23.8-1.6 2.1-3.3 3.7-3.8 3.7s-.6-2.4-.3-5.8c.3-3.1.7-7.7.9-10.1l.4-4.5h5c5.5-.1 8.2-1.9 10.2-6.7 1.1-2.6 1-3.3-1.1-6.4-1.3-1.9-3.2-3.5-4.2-3.5-3.3 0-1.2-2.5 3.8-4.3 7.2-2.7 14-7.6 24.6-17.9 8-7.7 10.3-10.6 13.2-16.8 4.6-10 6.1-16.5 6.1-28.5l.1-10-2.5.3c-3.9.4-16.5 8.8-21.4 14.3-2.4 2.7-4.7 4.6-4.9 4.2-.3-.5-.2-5.1.3-10.3.8-8.9-.6-30-2-30-.7.1-21 19.8-24.3 23.7-1.5 1.8-2.7 3.7-2.7 4.2s-.4 1.1-.9 1.3c-.5.1-1.7 1.8-2.8 3.7-2.4 4.4-3.7 4.1-4.4-1.2-.4-2.4-1.4-5.7-2.2-7.3-.8-1.6-2.4-5.9-3.6-9.6-2.8-8.6-5.2-11.8-7.4-9.9-.9.7-2.1 2.9-2.8 4.9-.7 2-2 5.3-3 7.2-3 5.7-6.2 22.5-6.3 33-.1 10.9 1.1 16.3 6.5 30.8l3.9 10.3-2 3.8c-1.1 2.2-3.3 5.9-4.9 8.3C80.5 194 74 208.4 73.2 215c-.8 6.3-.9 6.4-2.2 3.7-.7-1.5-1.9-2.7-2.7-2.7-.7 0-1.3-.7-1.3-1.6 0-.8.4-1.2 1-.9 2.8 1.7-10.9-30-17.2-39.8-3.4-5.3-4.9-5.6-5.9-1.1-.4 1.6-1.7 6.5-2.9 10.9-3.1 11.5-3.8 32.1-1.6 44.6 3 16.6 6.4 26.6 13.5 39.9 3.7 6.9 8.1 14.5 9.7 16.9 6.2 9.3 6.6 10.1 6 12.4-.3 1.2-2.5 3.6-4.9 5.4-9.7 7.4-25.2 24.5-29.3 32.4-1.9 3.8-1.4 8.8 1.6 15.2 2.8 6.1 6 15.7 5.2 15.7-.4 0-3.1-1.6-6.1-3.5-2.9-1.9-5.9-3.5-6.6-3.5-1.4 0-1.9 3.3-3.1 20.1-.4 5.9-.3 8.9.5 9.3.6.4 1.1 2.4 1.1 4.5s.9 6.3 1.9 9.4c1.1 3.2 1.7 5.7 1.2 5.7-.4 0-2-1.4-3.7-3.1C24 401.3 9 389.5 4.1 386.6l-3.4-2 .5 11c.4 9 1.2 12.9 4.3 22.4 5.7 17.6 9.2 23.7 22.1 39 8.2 9.8 22.9 23.6 30.4 28.7 2.8 1.9 5.3 4 5.6 4.7.3.8-.2 4.2-1.1 7.6-.9 3.5-1.3 7.5-1 8.9 2 7.8 18.8 40.9 24.5 48.1 1.8 2.2 3 4.3 2.8 4.6-.3.2-4.1-.9-8.5-2.5-13-4.8-34.1-6.7-37.4-3.4-2.2 2.2 9.9 22.2 18.2 30 1.9 1.8 5.4 5.1 7.9 7.3 4.4 4.1 4.5 4.2 1.5 3.6-1.6-.4-8.5-.9-15.3-1.3-12.6-.6-29.2 1-29.2 2.8 0 .5 3.3 4.2 7.3 8.2 12.6 12.7 30.6 23.2 46.2 26.8l9.6 2.2-.3 6.1-.3 6.1-4.5 1.3c-16.1 4.8-22.7 7-31.8 10.8-20.6 8.6-33.2 19.9-33.2 29.8 0 5 3.2 8.1 13 13 8.1 3.9 8.6 4.3 9.9 8.6 1.3 4 1.2 6.2-.7 21-1.2 9.1-2.2 17.9-2.2 19.6 0 4.2 1.1 9.4 1.9 9.4.4 0 4.6-3.7 9.3-8.3 12-11.7 25.5-18.4 58.3-29.2 15-5 26.8-7.6 41-9.1 6.8-.7 6.7-.4-1.3 4.8l-5.3 3.5 2.8 1.1c8.7 3.3 39.7 6.5 51.8 5.2 15-1.6 25-4.5 33.6-10 2.5-1.7 5.5-3 6.6-3 1.1 0 2.8-.9 3.9-2.1 3.8-4.2 4.5-4.1 17 2.2 89.2 44.7 196.2 45.8 287.1 2.9 6.9-3.3 12.7-6 12.8-6 .1 0 1.9 1.3 4 3 4.2 3.4 6.5 3.7 9.9 1.5 2.3-1.5 2.6-1.4 7.7 3.1 3 2.5 6.4 5.1 7.6 5.6 3.2 1.5 7.1.2 7.5-2.5.5-3.9 3.9-3.2 10.2 2.3 7.6 6.7 12.5 6.6 14.9-.3.9-2.4 4-2.1 8.2.7 4.3 3 10.1 5 12 4.3.7-.3 1.9-1.8 2.7-3.4 1.3-2.6 1.7-2.8 6.7-2.5 3 .2 6.3.7 7.3 1.3 1.6.9 2.7.3 6.4-3.4 2.5-2.5 4.4-5.4 4.4-6.6 0-2.6-8.8-11.4-10.7-10.7-3 1.2-1-1.6 2.2-3.1 3.3-1.6 4.2-1.6 14.5.1 20.1 3.2 61.9 18.6 75.3 27.7 1.8 1.2 6.7 5.6 10.9 9.7l7.7 7.6 1.1-2.8c1.5-4 1.3-9.7-1.1-26.3-2.2-15.5-2.1-20.8.5-24.7.8-1.3 5.3-4.2 9.9-6.4 9.3-4.4 11.7-6.9 11.7-12 0-10.6-14.6-22.9-37.5-31.7-3.8-1.5-12.8-4.4-20-6.5l-13-3.8-.3-4.2-.3-4.2 4.3.6c4.1.6 4.5.5 5.9-2 .7-1.5 1.2-3.7 1.1-5-.3-2 .1-2.4 2.4-2.4 1.5 0 5.3.5 8.4 1.2 6.2 1.2 9.3.8 13-2.1 2.5-2 2.5-2 .8-4.9-2.2-3.7-1.7-4.1 7.6-7.2 3.8-1.2 7.7-3.1 8.7-4.1 2.3-2.3 2.4-6.6.4-9.4-1.4-1.7-1.2-2.2 1.9-5.5 4.9-5.1 5.2-7.1 1.6-9.8-1.6-1.2-3.7-2.2-4.8-2.2-3.1 0-4.3-2-2.6-4.5 1.3-2 1.2-2.3-1-3.4-2.8-1.6-2.4-4.5.9-6.7 5.7-3.7 5.2-12.7-.7-14-5.2-1.1-8.8.5-10.5 4.4-1.8 4.3-1.3 3.8-3.9 4.6-1.6.5-2.5-.1-4-2.9-2.2-4.1-4-4.3-10.1-1.5-2.4 1-4.3 1.6-4.3 1.3 0-.3 2.9-3.4 6.5-7 3.5-3.5 7.9-8.5 9.6-11.1 1.8-2.6 4.5-6.1 6.1-7.9 1.7-1.7 3-4.2 3.1-5.5.1-4.7-3.5-21.5-6.4-29.8-1.6-4.7-3.2-9.3-3.6-10.3-.4-1.3.1-2 1.6-2.4 1.7-.4 2.1-1.2 1.9-3.2l-.3-2.6 10.9-.1c9.5 0 11-.3 12.3-2 .9-1.2 1.2-3.1.8-5.3-.7-3.9.4-5.1 5.2-5.1 6 0 13.6-2.2 16-4.6 2.2-2.3 3.3-8.4 1.4-8.4-.5 0-1.1-.9-1.4-1.9-.6-2.5 3.1-6.1 9.9-9.4 2.8-1.5 5.4-3.4 5.8-4.3.9-2.3-.3-5.6-2.5-7.2-2.7-1.8-2.4-4.8.7-6.9 6.5-4.5 7.5-5.8 7.9-9.8.5-5.2-.1-7.2-2.5-7.8-2.5-.7-2.5-3.4 0-7.2 2.7-4 2.6-8.7-.3-12.1-2.1-2.4-2.8-2.6-6.2-2-2.6.5-5 2-7.1 4.3-3.1 3.3-6.4 4-6.4 1.3 0-1.8-4.6-1.1-6.5 1-1 1.1-2.1 2-2.5 2-.3 0-.4-2.7-.2-6 .4-5.7.4-5.9-2.3-6.6l-2.7-.7.7-8.7c.7-8.6.7-8.7-2-10.4-4.1-2.7-10-.8-11.9 3.8-1.8 4.4-3.6 5.4-5.3 3.1-1.8-2.6-1.7-10.1.2-10.9.8-.3 1.5-1.4 1.5-2.5s.6-3.5 1.4-5.3c.8-1.8 2.3-6.2 3.5-9.8l2-6.5-3.5-7.2c-2.7-5.5-5.3-8.9-10.6-13.8-3.9-3.6-8.9-8.6-11.1-11.1-3.5-4-3.9-4.9-2.9-6.5 1.1-1.7.9-2.3-1.3-4.3-1.4-1.3-2.5-2.6-2.5-3 0-.3 3.9-2.5 8.6-4.8 11.8-5.8 13.9-9.7 8.3-15.6l-2.1-2.3 2.3-2.6c1.3-1.3 4.9-4 8-5.9 7.9-4.8 8.5-6.7 3.9-11.6-1.6-1.7-3-3.4-3-3.8 0-.4 1.1-2 2.5-3.6s2.5-3.4 2.5-3.9c0-.6 1-1.5 2.2-2 3-1.3 4.5-5.7 3.2-9.3-.7-2-1.9-2.9-4.7-3.6-2-.5-3.7-1.6-3.7-2.3 0-.7 1.6-4.5 3.5-8.3 4.1-8.1 4.1-8.4 1.6-10.9-1.7-1.7-2.5-1.8-5.6-1-4.7 1.3-5.8.5-5.1-4 1.9-10.8 1.9-11-.8-14.6-2.3-3-3.3-3.5-6.7-3.5-4.7 0-8 2.8-7.2 6l.6 2.1 2.1-2c2.8-2.7 4.1-2.6 6 .1 2.1 3 2 4.8-.3 4.8-1.2 0-2.1.9-2.5 2.6-.6 2.4-11.1 13.4-14.8 15.5-1.6.9-1.8.4-1.7-4.3.2-9.9 2.7-13.1 7-9.2 1.8 1.6 2 1.6 4.4-1.2 1.4-1.6 2.5-3.2 2.5-3.7 0-1.1-2.5-.8-3.8.5-.9.9-2.1.8-5.2-.2-5.4-1.8-6.5-.6-6.4 7 .1 5.8.1 5.9-2.5 5.4-2-.4-2.8 0-3.6 1.7-1.9 4.2-3.5 3.4-3.5-1.8 0-3.8-.7-5.5-2.9-8.3-2.7-3.2-3.1-3.3-5.4-2.1-1.3.7-3.3 1.1-4.3.9-2.8-.5-2.4-11.9.7-19.4 1.9-4.5 2.1-5.8 1.1-7.5-1-1.6-.9-2.5.3-4.9.9-1.7 2-3 2.5-3 1.5 0 8-10.2 8-12.6 0-2.5-3.8-7.7-5-6.9-1.6 1-4-.7-4-2.9 0-1.2.9-3.9 2-6.1 3.7-7.3 2.2-14.5-3.1-14.5-3.9 0-4.4-1.7-2.9-9.2l1.3-6.1-3-2.7c-2.2-2-3.8-2.6-5.6-2.3-3.1.6-3.8-.6-4.6-7.6-.7-6.2-2-7.4-9.7-8.6-3.1-.5-4.3-.3-5.6 1.2zm8.9 6c1.2 1.8 2 5.4 2.3 10.7.5 8-.8 13.5-5.2 22.3-1.8 3.5-1.8 2.3-.3-4.2 2.7-11.4 1.3-15.3-2-5.4-2.3 6.8-3 5.6-1.1-1.9.9-3.3 1.6-7 1.6-8.2 0-4-1.8-1.1-3.5 5.7-.9 3.8-2.3 7.9-3.1 9.3-1.4 2.4-1.4 2.4-.8-1.3.4-2.4.2-3.7-.5-3.7-.6 0-1.1.9-1.1 2 0 4-1.7 1.9-2.9-3.6-1-4.4-1-6.2 0-8.6 1.2-3 2.5-3.3 7.3-1.3 2 .9 2 .2 0-7.8-1.4-5.9 6-9.1 9.3-4zm-39.8 12.7c.6.7 2.2 1.1 3.5.9 2.8-.6 4 1.1 5 6.8.3 2 1.6 4.5 2.7 5.5 2.1 1.9 2.2 1.9 3.6-.4 2.8-4.1 6.3-2.4 6.3 3.1 0 3.1 2.6 10.1 3.8 10.5.6.2 1.3-.6 1.7-1.7 1.6-5.1 7.1.4 6.3 6.1-.4 2.8.6 8.2 1.8 9.7.2.2 1.3-.7 2.4-2l2-2.4 2 2.4c2.2 2.5 2.5 6.7 1 12-1.3 4.5.4 7 3 4.6 3.5-3.1 5.3-1.2 6.3 6.7.6 4.2.3 5.2-3.1 10.4l-3.7 5.8-.6-5c-.3-2.7-.7-3.9-.7-2.8-.1 1.2-1.1 3.2-2.2 4.5-2.3 2.9-2.5 2.3-.5-2.4.8-2 1.5-4.1 1.5-4.7 0-2-1.7-1-3 1.7-2.1 4.6-2.2 1-.1-3.8 1.1-2.4 1.7-4.6 1.5-4.9-.3-.3-1.9 1.1-3.6 3-1.6 1.9-2.7 2.7-2.4 1.8.3-1 .8-4.1 1.1-7l.6-5.3-2.3 4.5-2.3 4.5-.3-5.8c-.3-5-.5-5.7-1.8-4.7-1.2 1-1.4.8-1.4-1.6 0-1.6.4-4.4.9-6.2 1.4-4.7-.6-4-2.8 1l-1.7 4.2-2.7-4.8c-2.3-4.1-2.7-6-2.7-12.7 0-4.6-.4-7.9-1-7.9s-1 2.7-1 6.1v6.1l-4-4c-2.2-2.2-5.2-4.3-6.6-4.6-4.1-1.1-4 .1.3 2.3 2.2 1.1 4.6 2.7 5.4 3.7 1.3 1.6 1.2 1.6-.8.6-4.2-2.3-3.8-1.1 1.2 3.4l5 4.5-5.6-.5c-3-.3-7-.9-8.9-1.2-2.2-.5-3.1-.4-2.7.3.4.6 4.3 1.6 8.8 2.4 6.7 1.1 8.3 1.7 9.8 3.8 3.1 4.4 6.1 11 5.3 11.5-.9.6-8-.2-13.6-1.4-2.6-.6-3.5-.5-2.8.2.6.6 4.5 1.9 8.7 2.9 9 2.1 10.3 2.9 5.1 2.9-4.9 0-3.8 1.6 1.7 2.4 3.2.5 4.9 1.5 7 4.1 1.5 1.9 2.7 3.7 2.7 4.1 0 .4-2.8.4-6.2 0-5.3-.5-6-.4-4.8.7.8.8 3.5 2 6 2.8l4.5 1.4-4.3.3c-6.3.5-19-4-22.9-8.1-1.7-1.7-3.3-4.1-3.5-5.2-.2-1.7.4-2.1 3.7-2.5l3.9-.5-3.9-3.3c-2.2-1.7-4.4-3.2-5-3.2-.6 0-3.5-2.2-6.4-4.9-4.8-4.4-5.2-5.1-4.1-7.1.9-1.7 1.9-2.1 4.1-1.8 1.6.3 2.9.2 2.9-.2 0-.3-2.2-2.8-5-5.5-2.7-2.7-5-5.2-5-5.6 0-.4.7-1.5 1.6-2.3 1.1-1.2 2-1.3 3.4-.6 1 .6 2.3 1 2.9 1 1.9 0 1.2-4.5-1.3-7.9-2.1-2.9-2.4-4.2-2.2-11.3.1-6.6.5-8.2 2.1-9.4 2.4-1.8 4.9-1.8 6.4 0zM142.5 93c.8 7.7-1.3 35-2.7 35-.4 0-.8 1.7-.8 3.7 0 2.1-1.3 6.5-2.9 9.8-2.9 6.1-12.6 20.4-16.3 24-2.1 2-2.1 1.9 0-1.5 1.2-1.9 3-5.1 3.9-7 1-1.9 2.4-3.9 3.1-4.3.6-.4 2.1-2.5 3.1-4.5 2.4-4.7 7.2-19.4 6.6-20-.7-.7-.7-.8-5.5 11.5-2.4 6.2-4.9 11.3-5.4 11.3-.6.1-2.9 2.9-5.1 6.4-2.2 3.5-4.2 6.2-4.4 6.1-.2-.2 1.3-3.4 3.3-7.1 4.3-7.7 11.2-25.7 12.1-31.2l.6-3.7-1.6 2.7c-.8 1.5-2.7 6-4.1 10-2.6 7.2-10 22.8-10.9 22.8-.8 0 2.7-10.6 8.2-24.5 4.7-12 12.3-33.1 12.3-34.3 0-1.5-2.1 1.6-3 4.6-2.1 6.3-16 41.3-18 45.1-2.3 4.4-2.5 2.4-.4-4.4 7.1-23.3 5.9-25.2-1.6-2.4-4 12.4-5.5 15.8-6.2 14.5-.6-1.1-.6-2.8.1-4.8.6-1.7 1.1-4.3 1.1-5.7-.1-2.3-.2-2.4-1.1-.8-.6 1-1.5 4-2 6.5-.8 4.4-.8 4.2-.4-1.8.5-7.7 7.4-27.9 12.6-36.7 3.1-5.3 22.3-26.3 24-26.3.4 0 1 3.2 1.4 7zm561.1 3.1c-1.6 6.9-6.1 17.9-5.1 12.4.3-1.7 1.8-7.5 3.3-12.9 2.9-10.6 4.3-10.2 1.8.5zm5 2.6c-.2 9.5-.7 13-2.6 18.1-1.2 3.4-2.5 6.1-2.7 5.9-.2-.2.1-1.6.7-3.1.5-1.5 1-3.9 1-5.4-.1-2.5-.3-2.3-2.5 1.8l-2.4 4.5.5-3.5c1-5.9 3.2-14.3 4.8-18.5.8-2.2 1.5-5.9 1.6-8.3 0-2.4.4-4.1.9-3.8.5.3.8 5.9.7 12.3zm-608 2.7c.9 3.9 2 7.5 2.4 8.1.4.5 1.1 2.6 1.5 4.5.7 3.3.6 3.4-.9 1.5-1.5-2-1.5-2-1.6.5-.1 1.7-.6.9-1.4-2.3-.7-2.6-1.7-5.1-2.1-5.5-.7-.6-.2 8.2 1 18.3.4 3.5.3 3.4-.9-1.1-.7-2.8-1.8-5.9-2.4-7-1.7-2.9-1.5 5.8.3 18 .8 5.5 1.5 10.4 1.5 11-.1 1.8-2.8-6.4-3.5-10.6-.4-2.1-1-3.6-1.4-3.3-.9.5.3 10.6 2 16.9 2 7.7 2 8.1 0 4.6-1.1-1.9-2.5-5.9-3.1-8.7-.6-2.9-1.6-5.6-2.2-5.9-1.5-.9-.2 7.1 2.3 14.3 2.8 8.3 1.6 7.5-2.1-1.4-2.8-6.6-3.4-9.3-3.8-18-.3-8.5 0-11.9 2.2-21 2.9-11.9 5.1-18.6 7.4-22.2l1.6-2.3.8 2.2c.5 1.3 1.6 5.5 2.4 9.4zm597.4-.8c-1.7 5.1-2.3 3.5-.8-2.1.7-2.7 1.4-4.1 1.6-3.2.2 1-.2 3.3-.8 5.3zm-527.1 7.5c-.6 1.3-1.5 5.5-2 9.5-2 18.2-13.1 35-30.9 46.8-9.8 6.4-14.4 9.1-13.6 7.8.4-.7.2-1.2-.6-1.3-.7 0 .5-.7 2.7-1.5 5.5-2 7-3.8 2.5-3-2.2.3-1.5-.1 2-1.3 3.1-1 6.5-2.3 7.5-3 1.7-1 1.1-1.1-3.5-.7l-5.5.5 9-3.5c4.9-1.9 9.2-3.8 9.5-4.1.5-.6-7.3.2-12 1.2-3.3.7 3.6-2.5 12.8-6 9.2-3.4 8.2-5.2-1.3-2.5-13.6 3.9-12.7 2.6 2.7-4.1 12-5.1 11.6-6.3-1.1-2.9-4.1 1.1-7.6 1.8-7.8 1.6-.3-.3 14.4-7.3 20.3-9.7 6.2-2.4 0-1.9-7.6.7-4.4 1.5-8.3 2.5-8.6 2.2-.3-.3 2.2-2.3 5.6-4.3 6.8-4.2 7.3-5.6.9-3.1-3.6 1.5-4.1 1.5-3 .2.7-.9 3.3-2.8 5.7-4.3 7.3-4.6 4.8-5.1-3.7-.7l-3.2 1.6 2.1-2.9c3.4-4.7 8.7-9.3 15.3-13.3 6.5-3.9 8-3.9 5.8.1zm462.1.9c1.5 1.6 3.8 3.4 5.1 3.9 2.4 1 2.4 1-.4 1-3.9.1-2.5 1.8 2.6 3.3l4.2 1.2-3.5.6-3.5.6 3 1.6 3 1.7-3.5.1c-2.6 0-3.1.3-2 1 1 .6 1.1 1 .3 1-.7 0-1.3.7-1.3 1.5s.6 1.5 1.4 1.5c.7 0 1.6.8 1.9 1.9.3 1.1 1.9 2.2 4.3 2.9 3.8 1 3.8 1 .9 1.2l-3 .2 3.9 1.8c3 1.4 3.5 1.9 2 2.2-1.5.4-1.2.8 1.6 2 2.9 1.4 3.1 1.7 1.3 1.7-2.5.1-3.2 2.1-.8 2.1.9 0 1.2.6.9 1.5-.4.8.1 1.7 1 2.1.9.3 1.4 1 1.1 1.5-.3.4.8 1.5 2.5 2.4 1.7.9 2.8 2 2.5 2.4-.2.5.5 1.5 1.8 2.3 2.4 1.5 16.3 5.5 21.2 6.1 1.7.2.1.5-3.4.6-6.1.1-6.4.2-4.5 1.7 1.3 1.1 1.5 1.7.7 2-2.3 1-1.4 2.3 2 2.7 1.7.2 0 .5-4 .5-10.1.3-12.3-.9-8.7-4.9 1.4-1.5 1.3-1.9-1.2-3.8-1.5-1.2-3.9-2.4-5.3-2.7-10.1-2.2-13.4-5-9.5-7.9 1.8-1.3 1.8-1.4 0-3.4-1.1-1.2-4.5-3.3-7.7-4.7-6.5-2.9-10.1-6.3-12.3-11.5-1.5-3.7-.8-5.9 2-5.9 3.5 0 2.4-3.9-2.7-9.8-1.8-2-2.9-4.4-2.9-6.2 0-2.7.3-3 3.1-3 2.2 0 4 .9 5.9 3zm81.1 7.1c-.7 3.2-.9 7.4-.6 9.3.5 2.3.2 4.3-1 6.2l-1.6 2.9.6-3.8c.7-4.2-.8-4.4-2.6-.3-1.9 4.4.4-7 2.7-13.5 1.3-3.7 2.5-7.5 2.5-8.5.1-1.8.1-1.8.6 0 .3 1 0 4.5-.6 7.7zm-324.3 1.3c4.6 4.8 5.2 5.9 5.2 9.5 0 5.2-2.2 10.6-4.8 12-1.2.6-5.2 1.1-9.1 1.1-6.5 0-7.1.2-8.9 2.7-1 1.6-3.1 6.7-4.7 11.4-2.5 7.8-2.7 9.7-2.3 18.8.4 8.3.9 10.9 3.1 15.2 1.5 2.8 2.7 5.9 2.7 6.9 0 .9.9 2.9 2 4.2 2.8 3.6 9.3 5 20 4.2 8.6-.7 8.9-.6 11.4 1.9 1.4 1.4 2.6 3.5 2.6 4.7 0 1.1.9 3.8 2 6 2.4 4.8 2.5 8.8.2 11.7-1.3 1.7-4.1 2.7-11.6 4.3-5.4 1.1-11.5 2-13.6 2-7.6 0-31.8-12.4-36.5-18.7-14.3-19.1-13.9-18.1-14.7-31.8-.5-6.6-1.1-14.4-1.4-17.3-.5-4.1-.2-5.8 1.2-8 1.3-1.9 1.9-4.6 1.9-9.4 0-6.6.1-6.8 4.7-11.5 2.8-2.9 5.1-6.4 5.9-9 1.5-5.3 3.6-7.2 8.5-8 2.2-.3 5.3-1.3 6.9-2.3 2.8-1.7 12.5-5.3 17-6.3 4-1 7.1.5 12.3 5.7zm69-.4c5.4 1.6 12.9 3.4 16.7 4 10.9 1.7 13.4 2.8 21 9.9 3.9 3.6 9.2 8.3 11.8 10.4 2.6 2.1 5.5 5.2 6.4 7 2.8 5.2 2 14-2.3 26.2l-3.7 10.5-8.8 5.1c-5.2 2.9-10.1 6.6-11.9 8.9-4.3 5.5-6.2 5.8-12.2 2.1-5.6-3.5-11.5-4.1-17.2-1.7-4.5 1.9-5.8 6.1-5.8 18.9.1 10.9-1 14.5-5.2 17.2-2.4 1.6-4.9 1.2-7.7-1.1-.8-.8-3.8-1.7-6.5-2-7.2-.8-9-2.1-11.5-7.8-1.8-4.1-2-6.2-1.6-11.6.8-8.9 3.1-16 6.7-20.5 3-3.7 3.1-4.1 2.4-10.7-.6-6.6-.5-7.1 3.5-15 2.2-4.6 4.5-10.7 5.1-13.5.5-2.9 1.7-6.8 2.7-8.5 1.3-2.5 1.7-6 1.7-14.9.1-10 .4-12 2-13.8 2.5-2.7 2.9-2.7 14.4.9zm249.7 4.1c-2.3 6.8-2.8 5.8-.7-1.5.9-3.2 1.8-5.4 2-4.7.2.6-.4 3.4-1.3 6.2zm11.5 11.3c-.6 1.8-2 4.2-3.2 5.2-1.4 1.2-1.8 1.4-1.3.4.5-.9 0-.8-1.3.4-2.7 2.3-2.8 1-.7-4.9 1.2-3.3 1.4-3.6 1.5-1.5.2 2.3.3 2.2 1.7-1 .8-1.9 2-4.1 2.6-4.9 1-1.2 1.3-1.1 1.5.8.2 1.2-.2 3.6-.8 5.5zm-454 15.3c2.5 2.3 3.2 3.9 3.8 9 .7 5.1 1.5 6.9 4.5 10.2 2 2.3 3.7 5 3.7 6.1 0 3.7 3.7 9.4 8.7 13.6 3.9 3.3 5.2 5.3 7 10.5 1.2 3.5 2.4 8.3 2.6 10.6.4 3.2 1.6 5.5 4.5 8.9 2.3 2.5 4.3 5.7 4.7 7.2.3 1.5 3 6.3 6 10.6 7.7 11.2 7.6 13.6-.7 22.3-7.5 7.7-10.7 9.7-14 8.4-3-1.2-31.8-30.6-31.8-32.5 0-2.6-5-5.6-9.3-5.6-5.1 0-7.7 2.2-7.7 6.7 0 2.9 1.2 4.6 7.3 11.1 6.3 6.6 7.7 8.8 9.7 14.7 1.8 5.7 3.2 7.9 7.5 12 6.4 6.1 7.8 8.6 6.6 11.7-1.5 3.8-5.4 6.7-13.2 9.7-11.4 4.3-11.9 4.4-16.4 1.1-2.2-1.6-6-4.1-8.5-5.6s-5.5-3.3-6.8-4.1c-1.3-.8-3.1-3.3-4.1-5.6-2.3-5.2-4.5-7.2-9.9-9.1-2.3-.9-6.2-2.9-8.6-4.6-2.5-1.6-4.9-3-5.4-3-.6 0-4.7-4.3-9.3-9.5-7.9-9.1-11.4-11.5-16.5-11.5-1.2 0-11.3-5.8-13.9-8-1.7-1.4-1.9-5.3-.5-8.1.6-1 3.2-3 5.9-4.3 2.6-1.4 6.4-4.5 8.5-7 3.2-4 4.3-4.6 7.4-4.6 3 0 4.8.9 9 4.6 2.9 2.5 5.9 5.8 6.7 7.3.7 1.5 3.5 5 6.2 7.8 3.5 3.8 6 5.4 9.3 6.3 5.3 1.3 7 3.2 7 7.5 0 6.3 6.3 9.5 11 5.7 4.4-3.6 2.1-10-4.7-12.9-2.5-1-3.3-1.9-3.3-3.9 0-3.3-1.4-5.9-6.2-11.3-2.1-2.4-3.8-5.1-3.8-5.9 0-.9-2.3-3.7-5.1-6.3-5.4-5-7.2-9.4-6.2-15.4.7-4.3 11.3-15.5 14.6-15.5 3.6 0 7.4 3.5 10.2 9.3 1.6 3.3 4 6.3 6.6 8.2 2.3 1.6 6.6 6 9.6 9.8 3 3.7 6.5 7.5 7.9 8.4 3.4 2.2 10.3 2.3 11.7.2 1.4-2.2-1.3-9.3-5.8-15.3-1.9-2.4-5.1-7.6-7-11.4-1.9-3.9-5-8.2-7-9.8-1.9-1.6-5.1-4.2-7-5.8-5-4-4.6-6.5 1.7-11.8 2.8-2.4 7.4-6.4 10.2-9.1 5.8-5.5 8.3-5.9 12.6-2zm437.3 17.5c1.3 1.3 3.1 4.8 4 7.9 1 3.1 2.7 6.6 3.8 7.8 1.9 2.1 2.2 2.1 4.5.7 5.2-3.5 7.7-.7 7.8 8.9l.1 6 4.2-.3c4.1-.2 4.2-.1 4.9 3.4.4 2.1 0 6.8-.9 11.2-.8 4.3-1.1 8.1-.7 8.5.4.5 1.8.4 3-.3 1.5-.8 2.5-.9 3.3-.1 1.7 1.7 1.1 9.8-1.1 13.5-2.3 3.9-1.9 8.8.6 8.4.9-.2 1.8.5 2 1.6.5 2.3-2.6 9.3-4.4 10-.9.4-1.2 1.5-.8 3.5.7 3.5-2.3 10.5-6.1 14.1l-2.6 2.4 1.6-3.7c2.1-5 2-6-.5-4.7-1.1.6-2 1.8-2 2.7 0 1.8-4 8.6-4.7 7.9-.3-.2.1-1.5.8-2.7.8-1.6.9-2.4.1-2.7-2.1-.7 7.2-13.2 9.7-13.2.6 0 1.1-.5 1.1-1 0-2.4-3.5-.6-8 4-2.7 2.7-5.1 5-5.4 5-.3 0-.6-2.9-.6-6.5 0-6.2.2-6.7 4.7-12.2 2.6-3.2 5.1-6 5.5-6.2 2.1-.8 4.8-4.5 3.9-5.4-.5-.5-3.7 1.8-7.7 5.7-6.5 6.2-9.4 7.2-8 2.9.3-1 1.9-3.3 3.5-5.1 3.2-3.4 2.5-4.2-1.4-1.6-2.2 1.4-2.5 1.4-2.5.1 0-.8 1-2.6 2.1-4.1 2.3-2.9 1.9-4.7-.6-2.6-2.9 2.4-1.5-.7 3.1-6.6 5.2-6.7 7.8-11.3 7-12.2-.4-.3-1.4.5-2.4 1.8-.9 1.4-3.3 4.7-5.2 7.4-4.8 6.8-5.7 6.8-6.5.3-.9-6.7-.2-13.4 1.9-20.6 1-3.5 1.2-5.9.6-7-1-1.9-1.2-1.6-3.4 6.9l-1.4 5.5-1.5-3.5c-.8-1.9-3.3-8.9-5.7-15.5-2.4-6.6-4.8-12.5-5.3-13-1.3-1.4.2 5.3 1.9 8.7.8 1.5 1.4 3.2 1.4 3.8 0 .7 1.2 4.1 2.6 7.6 1.4 3.6 2.4 6.7 2.2 7-.3.2-2.6-1.2-5.2-3.2-6.8-5.2-6.7-3.6.1 2.7 5.4 5 6 6 7.7 12.7 1 4 1.6 7.5 1.3 7.8-.8.8-4.5-1.3-9.5-5.3-2.4-2-4.6-3.3-4.9-3-1 1.1 1 2.9 7.8 7.3 6.6 4.3 6.9 4.7 6.9 8.5v4l-3.2-1.7c-1.8-.9-4.5-2.5-6-3.5-3.1-2.3-3.9-2.4-3.2-.5.3.8 3.4 3 6.9 4.8 3.8 1.9 6.6 4.1 6.9 5.2.8 2.9.2 3-3 .3-3.7-3-10.5-6.9-11.1-6.3-.2.2.7 1.2 2.2 2.3 11.7 8.2 12.5 9.1 12.5 14.1.1 2.6.5 6.6.9 8.9.5 2.4.7 4.3.6 4.3-.7 0-6.1-4.9-10.3-9.3-2.5-2.6-4.7-4.5-5-4.2-.8.7 4.7 8.2 8.7 11.8 2 1.8 3.7 4.1 3.7 5 .2 2.2.1 2.2-4.6-.8-4.3-2.7-5-2.9-5-1.6 0 .5 2.8 2.8 6.2 5 6.7 4.4 6.2 5.4-.9 2-2.4-1.2-5.5-3.8-6.9-5.8-2.1-3-2.5-3.2-1.9-1.1.3 1.4 2.9 4.7 5.8 7.4l5.1 4.9-4.1-2.1c-4.4-2.3-10.6-10-11.7-14.5-.6-2.5-.5-2.8 1.4-2.2 3.4 1.1 2.3-1.3-3.5-7.1-6.6-6.7-7.1-9.4-2-9.4 5 0 4.6-3-1.1-8.4-3.3-3.2-4.5-5-4.2-6.8.3-2 .8-2.3 4.1-2 3.3.3 3.7 0 3.7-2 0-1.4-1.9-4.4-4.6-7.3-5.4-5.8-7.8-10.1-7-12.2.6-1.5 1.9-1.5 7.2.2 3.5 1.1 3.6-2 .4-9.2-1.7-3.6-3-7.4-3-8.3 0-2.9 2.7-3.1 5.9-.5 1.6 1.4 3.2 2.5 3.6 2.5.7 0 .3-4.6-1.1-11.5-.3-1.7-.1-4.2.5-5.8.9-2.2 1.6-2.7 4.6-2.7 2.4 0 4.3.8 5.8 2.2zm-124 2.8c10.4 5.7 28.6 23.9 35.1 35 4.9 8.4 6.2 13.1 4.8 17.8-.6 2-1.3 5.9-1.5 8.6-.4 4.2-1.1 5.5-5.7 10.1-4 4-6.3 5.5-9.1 6-2.1.4-5.6 1.9-7.6 3.3-3.3 2.3-4.8 2.7-11.3 2.7-4.1 0-8.5.6-9.7 1.3-2.3 1.3-3.7 4.9-4.9 12.2-.3 2.4-1.5 6.4-2.6 8.9-1.5 3.6-1.8 6.4-1.6 14.4.3 9.3.2 10-2.1 11.8-4.2 3.4-7 2.5-13.2-4.2-3.1-3.4-7.5-6.9-9.8-7.9-6.4-2.9-6.9-10.1-1.2-18 3.4-4.8 3.9-8.4 1.5-11.8-2.2-3.2-6.1-2.8-9.3.9-7.1 8.5-8.9 9.9-12.3 9.9-4.7 0-7.5-2.3-10.2-8.3-1.3-2.9-4-6.8-6-8.6-2.5-2.4-3.6-4.4-3.6-6.3 0-2.6 3-6.8 4.9-6.8 1.7 0 16-14.9 18-18.8 1.1-2.2 4.2-5.5 7-7.6 2.8-1.9 6.3-5.5 7.8-7.8 1.5-2.4 7.9-9.7 14.2-16.3 7.7-8 12.2-13.6 13.8-17.2 2.2-4.8 4.4-7.2 6.6-7.3.4 0 4 1.8 8 4zm103.5-2.3c-1 .2-2.6.2-3.5 0-1-.3-.2-.5 1.7-.5s2.7.2 1.8.5zm-577.4 3c.3 1 1.7 7.7 3.1 15 2.7 14 3 28.5.7 38.3-.6 2.5-1.6 7.8-2.2 11.9-.6 4.1-1.5 8-2 8.6-.5.7-1.6 4.7-2.5 9.1-1.6 8.6-6.3 19.2-11.9 26.9l-3.6 5v-6c0-9 1.4-12.3 7.7-18.7 6.7-6.7 6.6-8.9-.1-2.8-2.5 2.4-4.6 3.7-4.6 3.1 0-.6-.8-1.1-1.7-1.1-1.4 0-1.2-.3.6-1.3 2.8-1.4 4.2-4.1 1.7-3.1-3 1.1-1.7-2.3 2.9-7.9 2.5-3.1 5.9-6.6 7.6-8 1.7-1.3 3-3 2.7-3.7-.2-.7-3.5 1.8-7.6 5.7l-7.3 6.9.5-4.8c.3-2.6.9-7.1 1.2-9.8.5-4.2 1.7-6.6 6.6-13.1 3.3-4.5 5.8-8.3 5.6-8.5-.2-.2-2.5 1.7-5.1 4.3-3.9 3.8-4.7 4.2-4.7 2.6 0-2.8 4.3-19 7.5-28.2 2.8-8.2 3-9.5 1.5-8.6-.5.3-1 1.3-1 2.1 0 .9-1.3 4.6-3 8.4-1.6 3.7-3.2 8.5-3.6 10.6-.9 5.9-2 7.3-2.9 3.6-1.1-5.2-2.9-5.3-2-.1 1.1 5.7.9 17.9-.3 19.1-.6.6-2-1.6-3.7-5.7-1.6-3.6-3.2-6.2-3.7-5.7s.4 3.9 2 7.8c1.6 3.8 3.2 8.5 3.5 10.4.6 2.9.1 2.4-2.9-3.2-5.1-9.5-6.3-7.4-1.4 2.2l4 8-1.1 7.1c-.6 3.9-.9 9.5-.7 12.5.1 3 .2 5.4 0 5.4s-1.7-3-3.5-6.8c-2.7-5.7-3.2-6.3-3.5-4-.2 1.4.9 5 2.3 7.8s3 6.3 3.6 7.8c.9 2.5.7 2.4-2-.8-3.6-4.3-5.1-3.4-2.2 1.4 1.2 1.9 2.3 5.5 2.5 7.8.1 2.4.6 5.2 1 6.3.7 1.9.7 1.9-.7.2-2.2-2.6-3-2.1-2.4 1.5.6 3.3.6 3.3-1.5-.7-3-5.7-4.4-12-6.4-28.4-1.5-13.5-1.5-15.1 0-25.5 2.4-15.3 5-23.6 10.8-34.1 7.7-13.8 18.5-28.5 20.9-28.5.4 0 1 .8 1.3 1.7zm651.6 16c-3 7.9-2.6 11.5.7 7.5 1.1-1.2 1.1-.9-.1 1-1.9 3.3-.4 4.7 1.8 1.6 1-1.5 1.6-1.7 1.6-.8 0 1.8-13.1 14.3-18 17.1-2.7 1.6-1.9.4 3.8-5.3 8.6-8.8 9.5-12 1.5-5.1-9.6 8.1-10.1 8.1-2.5.1 6.3-6.6 8.5-9.8 6.7-9.8-.3 0-2.6 1.9-5 4.1-6.5 6-5.6 3.4 1.1-3.1 3-3 6-6.4 6.6-7.4.9-1.7.6-1.6-2.3.4-1.9 1.3-4.7 3.5-6.4 4.9-1.6 1.4-.8.1 1.8-2.9 2.7-3 5.8-7 6.9-8.9 2.1-3.3 2.2-3.3 3-1.1.6 1.6.2 4-1.2 7.7zm-703.5 7.8c10.6 23.6 14.6 34.1 11.6 30.9-.5-.5-3-5-5.6-9.9-6.5-12.2-5.3-5.7 1.5 8.3 2.8 5.7 5 10.6 5 11 0 1.3-5.9-7.6-9-13.6-1.8-3.4-3.7-6.2-4.1-6.2-1.2 0 1.2 6.2 6.5 17 3.7 7.5 4.1 8.9 2.1 6.5-1.4-1.7-4.2-5.9-6.3-9.5-2.4-4.3-3.8-5.9-4-4.8-.4 2 2.8 9.1 8.9 19.3l4.1 7-3.2-3c-1.8-1.7-5-5.6-7.3-8.9-5.2-7.4-6.1-5.7-1 1.9 2.1 3.2 4.6 7.2 5.6 8.9 1.1 1.7 3.1 4.4 4.5 6.1 4 4.4-.2 1.2-7.7-5.9-5.4-5.1-6.1-5.6-4.5-2.8 1.1 1.9 4.7 6.9 8.2 11.3 3.4 4.3 6 7.9 5.8 7.9-.3 0-2.6-2-5.3-4.4-2.6-2.4-5-4.3-5.2-4-.5.5 4.9 8.3 6.8 9.7.9.7 2.3 2.1 3.1 3.1 1.3 1.8 1.3 1.9 0 1.1-.8-.4-2.3-1.5-3.3-2.3-.9-.8-2-1.2-2.4-.8-.4.3.3 1.3 1.5 2.1 1.1.9 3.1 3 4.4 4.8 1.5 2.1 1.7 2.7.5 1.8-1-.8-1.7-.9-1.7-.3 0 .6.6 1.5 1.3 1.9.7.4 2.3 2.2 3.5 3.9 1.8 2.6 1.9 3.3.7 3.7-1.4.6-2.8-1.4-12.5-18.2-4.9-8.5-9.3-19.9-12.2-32.1-2.4-9.7-2.7-26.1-.7-39 .6-4.1 1.4-10.1 1.6-13.4.3-3.2.8-5.4 1.3-5 .4.5 3.8 7.6 7.5 15.9zm597.4-6.8c2.4 2.6 7.2 6.2 10.5 8 6.8 3.6 6.9 4 .6 1.8-2.4-.8-4.5-1.3-4.8-1-.9.9 4.3 4.4 9.8 6.6 3 1.2 5.9 2.5 6.3 2.9.9.8-6.7-.4-9.5-1.5-1-.4-1.8-.3-1.8.3 0 1.8 4.7 4.9 9.5 6.2 2.5.7 4.7 1.6 5 1.9.6 1.1-6.6.4-9.8-.8-8.3-3.2-5.1.4 4 4.6 4.1 1.9 7.3 3.6 7.1 3.8-.2.2-3.1-.2-6.3-1-7.3-1.7-7.8-1.8-7-.5 1 1.6 7.7 4.8 12 5.7l4 .8-5.5.5-5.5.6 3 1.3c1.7.7 4.4 1.9 6 2.6l3 1.4-4 .1-4 .2 4 1.9c3.7 1.7 3.8 1.8 1.3 1.9-2.3 0-3.8-1.5-9.6-9.3-3.8-5.1-9.7-12.5-13-16.4-3.4-4-6.2-7.8-6.2-8.5 0-.7-1.8-3.5-4-6.2-9-10.9-4.7-17.9 4.9-7.9zm-525.2-3.1c2.8.8 3.7 3.3 2.3 6.8-1.4 3.7-5.1 5.2-9 3.6-2.5-1-3-1.8-3-4.5 0-5.5 3.5-7.6 9.7-5.9zm27.2 15c-1 13.1-1.8 15.5-5.8 18.5-1.7 1.3-3.1 2.8-3.1 3.3 0 .6-1.6 3.3-3.5 6.1-2.9 4.1-5.4 5.9-14.5 10.8-6.1 3.2-11 5.6-11 5.3 0-.3 5.4-4.4 12-9.2 6.6-4.8 12.3-9.1 12.6-9.5 1-1.7-1.3-.9-4.7 1.5-4.1 2.9-17.1 9.7-17.6 9.2-.2-.2 4.3-3.9 10.1-8.2 5.8-4.4 10.5-8.2 10.5-8.7.2-1.5-2.4-.6-9.3 3.4-3.9 2.3-7.9 4.3-8.9 4.4-.9.2-2.3.7-3 1.1-.6.4.6-1.2 2.8-3.6 2.2-2.3 9.3-7.8 15.8-12.1 6.4-4.4 11.7-8.2 11.7-8.4 0-1.7-4.1.5-13.6 7.2-6 4.3-12.2 8.6-13.8 9.7l-2.9 1.9 2.3-3.4c3.9-5.6 16.9-18 25.9-24.7 4.6-3.4 8.5-6.1 8.7-6 .1.2-.2 5.3-.7 11.4zm607.1 4c-3.1 5-1.7 5.4 1.6.5 1.4-2.3 2.8-4.1 3-4.1 1.5 0-.3 3.7-4.2 9-3.7 5.1-4.4 6.7-3.9 9.1.8 3.5 1.1 3.5 4.4.6l2.6-2.2-2.4 2.7c-3.2 3.6-1.9 4.8 2 1.9 2.6-1.9 2.9-2 2.1-.4-.6 1-2 2.7-3.2 3.8-2.8 2.5-7.3 9.5-6.6 10.2.3.3 1.4 0 2.3-.8 1-.7.7-.1-.6 1.4-1.8 1.9-2 2.7-1 2.7.8 0 2.1-.6 2.9-1.3.7-.6.6-.1-.3 1.3-2.3 3.4-2.2 5.4.3 4.7 3.3-.8 2.3.7-3 4.7-5.7 4.4-8 8-7.4 11.6.4 2-.3 3-3.3 5-8.7 5.8-9.6 6-4.4 1.3 3-2.7 5.2-5.5 5-6.2-.3-.9-1.2-.7-3.1.8-4.5 3.6-4.4 2.3.2-2.4 4.9-5 4.8-6.9-.2-3.4-2.4 1.7-1.8.7 2.5-3.8 5.9-6.3 8.1-10.9 2.7-5.8-4.7 4.5-4.4 2.4.5-3.4 2.5-2.9 4.5-5.7 4.5-6.2 0-1.6-1.6-1-4 1.6-1.3 1.4-2.8 2.5-3.4 2.5-.6 0 1.5-2.6 4.7-5.8 3.1-3.2 5.7-6.1 5.7-6.5 0-1.5-3-.6-4.7 1.5-1 1.3-2.7 3-3.8 3.8-1.1.8.1-.8 2.6-3.6 4.2-4.5 5.1-7.1 3.9-10.4-.1-.3-.1-1.7 0-3.3.1-1.5-.1-2.7-.5-2.7s-2.6 1.6-4.9 3.5c-7.7 6.3-6.2 3.7 3.4-6 5.2-5.2 9.6-9.5 9.8-9.5.2 0-.6 1.6-1.8 3.6zm-628.6 36.9c-.9 1.4-4.9 4.2-8.8 6.2-3.9 1.9-6.6 3-6 2.4 1.7-1.9 15.9-11.9 16.2-11.6.2.2-.4 1.5-1.4 3zm550.6.6c0 1.4-1.6 1.1-2.9-.5-1-1.2-.8-1.3.8-.9 1.2.3 2.1.9 2.1 1.4zm-557 9.5c-1.5 1.7-9.1 5.8-13 6.8-1.4.4-.1-.6 2.7-2.2 2.9-1.7 6.5-3.9 8-5 3.1-2.3 4.3-2.1 2.3.4zm561.4 0c.3.8.2 1.2-.4.9-.6-.3-1-1-1-1.6 0-1.4.7-1.1 1.4.7zm-280.1 1.1c-1.3.2-3.3.2-4.5 0-1.3-.2-.3-.4 2.2-.4s3.5.2 2.3.4zm5.4-.1c-.3.3-1.2.4-1.9.1-.8-.3-.5-.6.6-.6 1.1-.1 1.7.2 1.3.5zm13.8 1.4c1.4.6.3.8-3.4.5-3-.3-5.6-.7-5.9-1-.9-.9 7.2-.4 9.3.5zm-44.5 1c-.8.5-1.9 1-2.5 1-.5 0-.3-.5.5-1s2-1 2.5-1c.6 0 .3.5-.5 1zm57.8 1.5c.9 1-7.1-.4-8.1-1.5-.5-.4 1-.4 3.3 0 2.2.4 4.4 1.1 4.8 1.5zm-69.8.4c0 .4-1.5 1.1-3.2 1.4-1.8.3-4.2.9-5.3 1.3-1.2.4-1.7.3-1.2-.2s2.7-1.4 5-2.1c2.3-.6 4.3-1.1 4.5-1.2.1-.1.2.3.2.8zm79 1c1.4.4 2 .9 1.5 1.3-.6.3-2.6 0-4.5-.8-3.7-1.3-1.4-1.7 3-.5zM120.5 256c-.7 1.1-11.9 7-13.2 7-.7 0 12.6-7.8 13.5-8 .2 0 0 .5-.3 1zm336.5 2c0 .5-.4 1-.9 1-.6 0-1.3-.5-1.6-1-.3-.6.1-1 .9-1 .9 0 1.6.4 1.6 1zm5.1 1.5c2.5 1 2.9 1.4 1.3 1.5-1.1 0-2.9-.7-4-1.5-2.5-1.9-1.5-1.9 2.7 0zM349 260c-.8.5-1.9 1-2.5 1-.5 0-.3-.5.5-1s2-1 2.5-1c.6 0 .3.5-.5 1zm405-.2c0 1.2-5.2 5.7-8.5 7.3-1.6.8-4.2 2.3-5.7 3.3-1.6 1-2.8 1.6-2.8 1.3 0-.3 2.1-1.9 4.8-3.6 2.6-1.6 6.1-4.4 7.7-6.1 2.8-2.9 4.5-3.8 4.5-2.2zM117 262c0 .5-1.9 1.9-4.2 3.1-4.7 2.4-4.6 1.9.4-1.7 3.9-2.7 3.8-2.7 3.8-1.4zm352.5.2c1.4.6 2.5 1.5 2.5 2 0 .7-3.1-.8-5.9-2.9-1-.7 1-.2 3.4.9zm6.2 2.9c.6.6 1.9 1.2 2.9 1.3 1 .2 2 .9 2.2 1.7.3 1.1.1 1.1-.7-.1-.6-.8-1.1-1.2-1.1-.7 0 .8-6-2-6-2.8 0-.9 1.6-.5 2.7.6zM333 266.5c-1.4.8-2.9 1.4-3.5 1.4-.5 0 .1-.6 1.5-1.4 1.4-.8 3-1.4 3.5-1.4.6 0-.1.6-1.5 1.4zm-220 2c-2.2 2.3-9 6.9-9 6.1 0-.6 10.1-8.6 10.8-8.6.3 0-.5 1.1-1.8 2.5zm376.4 4c1.1.8 1.6 1.5 1 1.5-.5 0-1.8-.7-2.8-1.5-1.1-.8-1.6-1.5-1-1.5.5 0 1.8.7 2.8 1.5zm213.2 3.4c.5.5 5.2 2.1 10.4 3.6 18.4 5.1 28.3 9.3 30.1 12.8.6 1 1.4 1.5 1.9 1.2.4-.3.4 1 0 2.7-4 15.5-5.5 20-10.1 29.1-2.1 4.3-2.4 5.7-1 5.7.5 0 1.4-1.5 2.1-3.3.7-1.7 1.8-4.6 2.5-6.2 3.5-8.1 4.6-11.1 6.6-18.5 2.1-7.9 3.6-9.9 4.6-6 .3 1.1.9 1.8 1.3 1.5.5-.3 1.1-.1 1.5.5.3.5.2 1-.3 1-.4 0-1.9 3.7-3.2 8.2-2.2 7.6-6.5 18.5-9.1 23.1-1.3 2.4-.3 3.5 1.5 1.6 1.3-1.3 3-5.8 9.9-25.7 2-5.9 3.7-8 3.7-4.7 0 .8.5 1.5 1.1 1.5.8 0 .8.4.1 1.2-.5.7-2 4.6-3.1 8.5-1.2 4-3.5 10.4-5.1 14.2-3.3 7.7-4 12.2-1.6 10.2 1.6-1.4 7.5-15.8 10-24.4 1.4-4.9 1.9-5.7 3.2-4.6.9.7 1.1 1.6.5 2.3-.4.6-1.6 3.6-2.6 6.6-1 3-3.5 9.6-5.5 14.7-2.1 5-3.5 9.5-3.2 9.8.4.3-.1.3-1.1-.1-.9-.3-1.7-1-1.7-1.5 0-.4-2.1-2.3-4.7-4.1-5.3-3.6-5.9-4-15.2-9.1l-6.4-3.5-4.7-13.4c-2.6-7.3-7-18.4-9.7-24.6-4.7-10.3-5.3-12.8-2.7-10.3zM496.5 277c.3.6-.1.7-.9.4-1.8-.7-2.1-1.4-.7-1.4.6 0 1.3.4 1.6 1zm4.6 2.7l2.4 2.6-2.7-1.9c-1.5-1-2.8-2.2-2.8-2.7 0-1.2.5-.8 3.1 2zm6 4c1.3 1.6 1.2 1.7-.3.4-1-.7-1.8-1.5-1.8-1.7 0-.8.8-.3 2.1 1.3zM301 285.4c0 .2-.8 1-1.7 1.7-1.6 1.3-1.7 1.2-.4-.4 1.3-1.6 2.1-2.1 2.1-1.3zm214.9 5.3c3.4 3.3-.1 1.4-4.4-2.3-2.6-2.2-2.6-2.4-.6-1.4 1.4.7 3.6 2.4 5 3.7zm-92.2-1.1c43.4 6.4 80.2 33 99.9 72.1 5.1 10.1 9.9 24.8 11.9 36.7 2 11.5 1.9 31.8-.1 43.7-5.3 31.4-22.4 60.8-46.8 80.5-10.6 8.5-13.4 9.9-23.6 11.4-4.7.6-24.5 4.1-44 7.6-47.4 8.6-44.3 8.4-57.2 4.1-45.4-15.2-78.1-51.9-88.3-99.2-.9-3.9-1.8-13.3-2.1-21-1-23.5 3.1-42.8 13.6-64 19.8-40 57.4-66.7 102-72.4 10.6-1.4 23.6-1.2 34.7.5zm-128.7.7c0 .2-1.2 1.4-2.7 2.8l-2.8 2.4 2.4-2.8c2.3-2.5 3.1-3.2 3.1-2.4zm-194.9 7.4c-3.4 8.2-9.3 26.2-11.9 35.8-1.6 6.1-2.3 7.2-5.1 8.7-7.4 3.7-16.3 10.2-19.3 13.9l-3.2 3.9-2.4-5.7c-1.4-3.2-3.9-10.7-5.7-16.7-1.7-6.1-3.7-11.2-4.3-11.4-1.8-.6-1.5 1.4 1.9 13.4 4.3 15.5 7 22.6 8.4 22 .8-.3.7.9-.3 4.1l-1.5 4.5-2.4-6.3c-1.4-3.5-4.2-11.3-6.4-17.3-2.1-6-4.4-11.5-5-12.2-3.2-3.8 18.2-25.7 32.1-33 1.9-1 8.9-3.7 15.5-6s12.1-4.2 12.2-4.3c.1-.1-1.1 2.9-2.6 6.6zm424.8 1.3c2.7 2.7 4.5 5 4.1 5-.4 0-2.1-1.5-3.7-3.3-1.6-1.8-4-4.1-5.3-5-1.4-.9-1.9-1.7-1.2-1.7s3.4 2.2 6.1 5zm7.6 7c.3.6-.1.7-.9.4-1.8-.7-2.1-1.4-.7-1.4.6 0 1.3.4 1.6 1zm3.6 5.3l1.1 2.2-2.1-2.2c-2.2-2.3-2.8-3.9-1.1-2.8.5.3 1.5 1.6 2.1 2.8zM273 313.4c0 .2-.8 1-1.7 1.7-1.6 1.3-1.7 1.2-.4-.4 1.3-1.6 2.1-2.1 2.1-1.3zm492 1.4c0 .4-.4 1.2-.8 1.7-.5.6-3.5 7.7-6.7 15.9-3.5 9-6 14.3-6.5 13.6-.4-.7 0-2.6 1.1-4.4 1.4-2.5 7.3-17.2 10.4-26.4.5-1.3 2.5-1.7 2.5-.4zm-222 4.7c1.1 1.3 1 1.4-.4.9-.9-.3-1.6-1-1.6-1.5 0-1.3.6-1.1 2 .6zm2.4 4.1c.3.8.2 1.2-.4.9-.6-.3-1-1-1-1.6 0-1.4.7-1.1 1.4.7zm219.2 5.1c-1.1 1.1-1.7-.4-.9-2.3.7-1.8.8-1.8 1.1-.1.2 1 .1 2.1-.2 2.4zM548 327c0 .5-.2 1-.4 1-.3 0-.8-.5-1.1-1-.3-.6-.1-1 .4-1 .6 0 1.1.4 1.1 1zm2.5 2.9c.3.5 0 1.3-.6 1.7-.7.4-.9.3-.5-.4.3-.5 0-1.3-.6-1.5-.9-.4-1-.6-.1-.6.6-.1 1.4.3 1.8.8zm2.6 5.3c1.1 2.1 1.1 2.2-.4.9-1-.7-1.7-1.7-1.7-2.2 0-1.5.9-1 2.1 1.3zM46.2 352c3.1 9.9 8 22.4 9 23.1.6.4.8 1.6.6 2.9-.3 2-6.3-12.2-12.9-30.5-1.2-3.3-2.5-6.5-3-7.1-.4-.5-.5-2-.2-3.3.5-1.9.9-1.4 2.5 3.1 1.1 2.9 2.8 8.2 4 11.8zm692.3-9.8c1.4 5.1 2.7 6.3 5.3 4.7 1.7-1.1 2.3-1 3.7.1 1.3 1.1 1.6 2.6 1.3 6.7-.4 3.9-.1 5.7 1 6.6 1.2.9 1.6.9 1.9-.1.3-.6 1.3-1.2 2.4-1.2 2.9 0 3.4 4.1 1 9.5-2.5 5.6-2.9 12-.7 11.2 1.6-.6 3.6 1.1 3.6 3.2 0 .9-1.2 4.6-2.6 8.3-3 7.4-2.7 10.6.6 8.8 2.4-1.3 4-.6 4 1.8 0 2-5.6 16-7.1 17.9-1.6 1.8-.4 4.4 1.7 3.6 1.5-.5 1.6-.1 1.1 3.3-.5 2.9-1.7 4.9-5.2 8.1-3.3 3-4.5 4.9-4.5 7-.1 3.1-8.4 14.4-12.2 16.4-1.9 1-1.7.5.9-2.5 3.7-4.1 7.7-11.5 6.9-12.4-.3-.3-.7-.3-.9-.1-.1.2-2 3.1-4.2 6.4-3.9 6.1-6.4 6.2-2.6.1 2.5-4 2.6-5 .6-4.2-3 1.1-1.4-2 3.7-7.1 5.8-5.9 4.9-7.1-1.5-2.1l-4 3.2.5-4.6c.5-4 1.4-5.4 7.2-11.4 6.8-7 9.4-10.4 7.8-10.4-.5 0-3.8 3-7.5 6.6-6.1 6-6.7 6.3-6.7 4 0-4.1 2.8-13.8 4.4-15 1.7-1.3 9.8-14.6 8.9-14.6-.7 0-6.9 7-9.6 10.9l-1.8 2.6.5-2.5c.3-1.4.8-6.1 1.1-10.5.5-6.3 1.1-8.5 2.9-10.5 3.1-3.4 9-14 7.8-14-.5 0-2.6 2.7-4.6 6-2 3.2-4 6.1-4.4 6.4-.4.2-.8-6.2-.9-14.2-.2-9.3-.7-15-1.4-15.6-.9-.8-1 1.2-.6 7.9.6 8.7.6 8.9-1 6-2.4-4.4-2.7-1.6-.4 3.8 1.1 2.5 1.6 4.8 1.3 5.2-.4.4-.7 2.8-.7 5.3-.2 20.3-1.7 19.6-4.5-2.1-1.1-8.6-2.4-17.6-2.9-19.9-.6-2.6-.6-4.8 0-6 .5-.9.9-4.1.8-6.9-.3-5.8 1.6-8.2 6.1-7.7 1.9.2 2.7 1.2 3.5 4zm18.5 5.3c-1.1 2.6-2.4 4.5-2.7 4.1-.4-.4.4-2.7 1.7-5.1 3.1-5.7 3.6-5.1 1 1zm-199.2-2c-.3.3-.9-.2-1.2-1.2-.6-1.4-.5-1.5.5-.6.7.7 1 1.5.7 1.8zm3.7 6.5c.3.5.1 1-.4 1-.6 0-1.1-.5-1.1-1 0-.6.2-1 .4-1 .3 0 .8.4 1.1 1zm218.6 1.7c.8 2 .7 4.3-.1 8.1-1.5 6.6-.6 12.9 1.5 11.2 2.9-2.4 4.7 1.7 2.5 6-.5 1.1-1.5 3-2.2 4.2-4.6 8.6-4.8 9.1-3.6 10.5.6.8 2.1 1.3 3.2 1.1 1.2-.1 2.7.1 3.4.5 2.6 1.7 1.1 5.3-4.8 11.7-3.3 3.6-6.1 6.9-6.1 7.5-.4 3.1.2 3.6 3.6 2.9 3.3-.6 3.5-.5 3.5 2.1 0 3.1-3.9 7.2-10.7 11.1-4.5 2.7-5.7 5.4-2.4 5.4 2.9 0 3.4 1.6 1.6 4.9-1.1 2.2-2.7 3.3-5.8 4.2-2.3.6-6 2-8.3 3-5.7 2.7-7.3 2.3-3-.6 2-1.4 4.3-2.5 5.1-2.5.8 0 1.7-.5 2-1 .7-1.1-2.7-.6-7.2 1.1-3.6 1.3-2.7.3 2.4-2.7 4.5-2.6 4.8-4.8.4-2.4-4.1 2.2-2 0 2.6-2.7 3.2-1.9 4.2-2.9 3.1-3.1-.9-.2-2.7.2-3.8.8-1.2.6-2.3 1-2.6.8-.2-.2 2.5-2.1 5.9-4.1 8.5-5.1 11.7-7.6 9.5-7.7-.9 0-3.3.9-5.2 2.1-5.2 3-4.4 1.6 1.1-2.2 2.7-1.9 4.1-3.5 3.4-3.7-.7-.2-1.8.1-2.4.7-.6.6-1.5 1.1-1.9 1.1-.5 0 .6-1.3 2.4-2.9 1.8-1.6 3.1-3.2 2.8-3.5-.3-.3-3 .6-5.9 1.9-2.9 1.4-5.6 2.5-5.9 2.5-.7 0 7.9-6.4 10.8-8 .8-.5 1.2-1.1.9-1.4-.3-.4-2.8.5-5.5 1.9-5.3 2.7-5.5 3 4.4-5.2 5.6-4.6 4.5-5.6-1.6-1.4-4.4 3.1-4.2 2.9 1.8-2.7 3.6-3.4 5.8-6.1 5.1-6.2-.8 0-2.9 1.2-4.5 2.7-1.8 1.7-1.5 1 .8-1.4 4.6-5 4.2-6.4-.9-3.4-5 2.9-5.1 2.7-.7-1.4 2.6-2.5 3.2-3.5 2-3.5-.9 0-2 .5-2.3 1-.4.6-2.5 1.9-4.8 3l-4.2 2.1 3.5-2.8c1.9-1.5 5.3-4.5 7.5-6.5 3.4-3.2 3.7-3.8 1.9-3.8-1.2 0-3.3.9-4.7 2-3.6 2.9-5.8 2.4-2.2-.5 1.6-1.3 2.6-2.7 2.2-3.1-.4-.4-1.5 0-2.5.9-1 1-2.3 1.7-2.7 1.7-.5 0 1.7-2.7 5-6 6.4-6.5 6.8-9 .8-4.4-3.9 2.9-3.4 1.7 1.6-3.9 2.6-2.9 2.3-3.4-1.2-1.6-1.6.8-1.2.1 1.2-2.5 2.8-2.9 3.1-3.6 1.7-3.6-1.7 0-1.7-.2-.2-2.5.9-1.3 1.6-3.3 1.6-4.3 0-4.6 5.5-5.7 7.1-1.5zm-705.8 2.8c1.3.8 3.3 2.8 4.6 4.5l2.2 3.1-1.7 13.2-1.8 13.2-2.1-14.9c-1.4-10.4-2.4-15.1-3.4-15.4-1.1-.4-1.2.3-.8 2.9.4 1.9 1.4 8.6 2.3 14.9.8 6.3 1.8 11.8 2 12.2 1.4 2.2-1.7.3-5.1-3.2-2.1-2.1-4.2-3.7-4.7-3.4-.5.3 1.8 3.2 5.2 6.4l6 5.9v6.6c0 3.6-.2 6.5-.5 6.5s-2.9-1.8-5.7-4c-7.3-5.8-7.3-3.9 0 2.9 6.3 5.9 7.8 8 4.1 6.1-3.1-1.7-3.3-.6-.4 2.5 2.8 3.2 2.7 4.2-.4 2.5-2.9-1.5-2.6.1.4 3 1.8 1.7 2.5 3.4 2.5 6.2 0 2.1-.3 3.8-.6 3.8s-1.9-.9-3.6-2.1c-1.6-1.2-3.2-1.8-3.6-1.4-.4.4.1 1.2 1.2 1.9 6.1 3.7 8.3 6.6 4.9 6.6-1.5 0-1.5.2-.1 1.7 2.3 2.7 3.3 8.4 1.7 9.4-1 .6-1.1 1.1-.3 1.6.6.5 1.4 2.4 1.7 4.3.6 3.3.6 3.4-.9 1.5-2.9-3.5-9.1-17.8-11.3-25.5-5.4-20-6.2-44.4-2-62.6.6-2.7 1.4-6.2 1.8-7.9.4-2 1.5-3.1 3.1-3.6 1.4-.4 2.6-.7 2.8-.8.1-.1 1.3.6 2.5 1.4zm492.7 10c0 .5-.5.3-1-.5s-1-2-1-2.5c0-.6.5-.3 1 .5s1 1.9 1 2.5zm-529.7 3.4l4.1 5.5-3.7-2.3c-2.8-1.7-3.7-1.9-3.7-.8 0 1.4 6 6.7 12 10.4 5 3.2 3 2.8-4-.7-3.3-1.7-6-2.6-6-2.1 0 1.1 3.3 3.8 11.9 9.7 3.6 2.4 6.2 4.4 5.9 4.4-.4 0-3.5-1.3-7-3-11.9-5.6-11.4-3.1 1.1 5.1 4.1 2.7 7.2 4.9 6.8 4.9-.4 0-3.5-1.1-6.9-2.5-3.4-1.4-6.3-2.3-6.5-2.2-.5.6 4.1 4.3 8.7 7 5.4 3.2 4.8 3.4-2.1.7-7.9-3.1-8.2-1.8-.6 3 3.7 2.3 6.6 4.5 6.4 4.7-.3.2-2.8-.5-5.6-1.6-8.2-3.1-6.6-.4 3 4.9 6.4 3.5 6 3.7-2.2.9-3.3-1.2-6.2-1.9-6.5-1.7-.2.3 2.9 2.8 6.8 5.6 7.8 5.6 8.1 6.1 2.3 3.6-6.1-2.5-6.1-1.1-.1 3.1 3.1 2.1 5.4 4 5.3 4.2-.2.2-2-.4-4-1.2-4.6-1.9-4.8-.4-.4 2.4 1.8 1.1 4.2 3 5.2 4.1 1.9 2.1 1.9 2.1-.8 1.5-3.9-1-3.4-.2 2.4 3.4 2.8 1.7 4.9 3.4 4.6 3.7-.3.3-1.4.1-2.6-.5-3.9-2.1-3.2.8.8 3.3 2.2 1.4 4.3 3.1 4.7 3.7.4.8.3.9-.4.5-2.5-1.5-1 1.3 3.1 6l4.2 4.9-4.2-3.3c-15.2-11.9-32.3-39.6-37.8-61.1-3.3-13.1-3.2-34.6.2-33.9.9.2 3.4 2.7 5.6 5.7zm533.4 11.3c-.3.8-.6.5-.6-.6-.1-1.1.2-1.7.5-1.3.3.3.4 1.2.1 1.9zm1 5c-.3.7-.5.2-.5-1.2s.2-1.9.5-1.3c.2.7.2 1.9 0 2.5zm239.9 2.3c-1.9 1.5-4.6 2-4.6 1 0-.6 4-2.4 5.5-2.4.6 0 .1.6-.9 1.4zm-800 6.4c3.2 2.2 8.2 6.1 10.9 8.7 3.1 2.9 3.8 3.8 1.8 2.5-1.7-1.2-3.3-2.1-3.6-2.1-.7 0 .4 4 1.2 4 .3.1 2 1.2 3.6 2.7 2.2 1.9.6 1.3-5.9-2.1-4.8-2.6-8.6-4.2-8.4-3.5.2.7 1.6 2 3.1 2.9 14.8 8.7 18.8 11.2 18.4 11.6-.2.3-2.3-.3-4.6-1.2-6.4-2.5-5.9-1.1 1 2.5 7 3.8 7.1 5 .3 2.7-5.3-1.8-6.4-1.9-6.4-.9 0 .5 3.4 2.6 7.5 4.7 4.1 2.2 7.3 4.1 7.1 4.4-.3.2-2.8-.4-5.6-1.3s-5.4-1.5-5.6-1.2c-.3.3 2.3 2.1 5.8 4.1 6.7 3.8 6.7 4.5-.2 2.1-5.6-2-7.2-1.9-6.8.2.2 1.1 1.2 1.7 2.3 1.6 1.9-.1 12 4.5 11.3 5.2-.2.3-2.1 0-4.2-.6s-4-.8-4.3-.5c-.8.8.7 2.6 2.3 2.6 1.5 0 9.4 3.7 9.4 4.4 0 .2-1.6 0-3.6-.4-2.9-.7-3.5-.5-3.2.8.2.8 1.7 2 3.4 2.6 1.7.6 4.2 1.9 5.5 2.8l2.4 1.8-3-.7c-2.8-.6-2.9-.5-1.6 1.1.8 1 3.6 2.9 6.3 4.2 5 2.5 6.4 4 2.7 2.9-3.8-1.2-1.1 1.4 4.2 4 4.9 2.5 6.4 3.9 3.2 2.9-1-.3.2 1.3 2.7 3.7 5.7 5.3 2.8 3.8-8-4.3-8.8-6.6-23.3-22-30-31.9-7.7-11.3-17-33.2-17-40 0-1.7-.5-3.9-1-5-1.6-2.8 0-2.3 6.6 2zm799.4-2.5c0 .8-11.2 4.7-12.4 4.3-.6-.2 1.4-1.3 4.4-2.5 5.4-2 8-2.6 8-1.8zm.6 4.1c-2 1.5-9.6 3.9-15.6 4.9-2.7.5-3 .4-1.5-.4 5.9-2.8 14.3-5.8 16.5-5.9 2.4 0 2.4 0 .6 1.4zm-237.9 1.7c-.3.8-.6.5-.6-.6-.1-1.1.2-1.7.5-1.3.3.3.4 1.2.1 1.9zm161.3 2.3c0 .5-.5.3-1-.5s-1-2-1-2.5c0-.6.5-.3 1 .5s1 1.9 1 2.5zm72.5 2.5c-1.1.5-2.7.9-3.5.9-.9 0-.8-.4.5-.9 1.1-.5 2.7-.9 3.5-.9.9 0 .8.4-.5.9zm-231.8 9.2c-.3.8-.6.5-.6-.6-.1-1.1.2-1.7.5-1.3.3.3.4 1.2.1 1.9zM804 411c-.8.5-2.6 1-4 1-2 0-2.2-.2-1-1 .8-.5 2.6-1 4-1 2 0 2.2.2 1 1zm-.2 3.2c-.5 1.4-8.5 4-10.8 3.5-.8-.2 1-1.3 4-2.4 6.5-2.6 7.3-2.7 6.8-1.1zm1.6 4.2c-.5 1.3-10.6 3.7-14.5 3.5-2.4-.1 10.1-4.5 13.8-4.8.7-.1 1 .5.7 1.3zm-229.7 5.8c-.2 1.3-.4.3-.4-2.2s.2-3.5.4-2.3c.2 1.3.2 3.3 0 4.5zm225-.6c-.3.3-1.2.4-1.9.1-.8-.3-.5-.6.6-.6 1.1-.1 1.7.2 1.3.5zm-225 6.6c-.3.8-.6.5-.6-.6-.1-1.1.2-1.7.5-1.3.3.3.4 1.2.1 1.9zm216.8 4.8c-1.1.5-2.9.9-4 .9-1.7.1-1.7-.1-.5-.9.8-.5 2.6-.9 4-.9 2.3 0 2.3.1.5.9zm-1 3.9c-1.1 1-9.5 2.6-9.5 1.7 0-.7 5.8-2.4 8.5-2.5 1.1-.1 1.5.3 1 .8zm.4 4.1c-.9.5-4.3 1.2-7.5 1.5l-5.9.5 4.5-1.4c5.4-1.7 11.4-2.1 8.9-.6zm-218.2 3.2c-.3.8-.6.5-.6-.6-.1-1.1.2-1.7.5-1.3.3.3.4 1.2.1 1.9zM792 448c-.8.5-2.4.9-3.5.9h-2l2-.9c1.1-.5 2.7-.9 3.5-.9 1.3-.1 1.3 0 0 .9zm-39 5.4c-1.9 1.8-9.6 3.4-8.6 1.7.4-.6 1.6-1.1 2.6-1.1s2.2-.5 2.5-1c.3-.6 1.6-1 2.8-1 1.9 0 1.9.2.7 1.4zm18.8.3c-1 .2-2.8.2-4 0-1.3-.2-.5-.4 1.7-.4 2.2-.1 3.2.1 2.3.4zm-20.3 3.2c-.6.4-2.3 1.1-4 1.5l-3 .6 2.5-1.5c2.7-1.6 6-2.1 4.5-.6zm19.5.1c-2 1.3-8 1.3-8 0 0-.6 2.1-1 4.8-1 3.4 0 4.3.3 3.2 1zm-33.1 16c3.6 3.5 6.8 5.7 7.4 5.3.7-.4.7 0-.1.9-.8 1-.9 1.9-.3 2.2.5.3-4.1 5.8-10.1 12.1-6.1 6.4-11.2 11.4-11.4 11.2-.2-.2.7-5.3 2.1-11.3 1.4-6 3-14.4 3.7-18.7.6-4.2 1.4-7.7 1.8-7.7.3 0 3.5 2.7 6.9 6zM82 480.7c0 .5.3 1.9.6 3.3.5 2.1.4 2.2-.6.7-.6-.9-1.5-1.7-2.1-1.7-.5 0 .4 2.6 2 5.7 2.7 5.4 9.6 28.1 8.8 28.9-.3.4-9-16.7-12.9-25.4-1.7-3.9-3.8-5.6-3.8-3.2 0 1.6 12.6 26.7 14.8 29.5 1.4 1.8 2.2 2.2 2.6 1.3.3-.7.4.3.1 2.2-.3 1.8-1 3.7-1.6 4.1-.6.4-1.7 3-2.3 6l-1.2 5.3-2-4c-1.2-2.1-3.9-7.3-6.2-11.4-2.2-4.1-5.3-9.9-6.9-12.9-1.5-3-3.4-5.7-4-5.9-2.3-.7-1.4 3.2 2.4 10.3 4.1 8 3.9 8.2-1.1.7-4.2-6.2-4.2-6.2-3.2-12.7 1-6 2.3-8.3 9.4-15.8 5.1-5.3 7.2-6.7 7.2-5zm665 4.7c0 .7.8 2.4 1.8 3.7 3 3.9 1.9 7.4-4.6 14.7-5 5.6-13.6 13.9-17.7 17.1-.6.4-1.9-1.6-3.3-5l-2.3-5.8 9.9-9.6c5.5-5.2 11-11.1 12.3-13 2.5-3.7 3.9-4.4 3.9-2.1zm6 16.9c0 .7-5.7 6.7-12.7 13.2-7.1 6.5-12.9 12-13 12.4-.2.3.1 1.2.6 2 1 1.5 5.1-1.9 18.4-15.2 4.2-4.2 7.7-7.4 7.7-6.9 0 .4-5.8 6.6-13 13.7-9.3 9.2-13 13.6-13 15.3 0 2.1 1.1 1.4 9.2-5.5 5-4.3 10.5-9.7 12.2-12.1 1.6-2.3 3.4-4.2 3.8-4.2 1.9 0-1.5 4.1-10.4 12.6-9.1 8.6-19.5 17.4-17.1 14.4 1.3-1.7 1.6-12.7.4-13.5-1-.5-.2-5.5.8-5.2 1.2.4 15.7-12.2 20-17.3 4.2-5 6.1-6.1 6.1-3.7zM80 531.8c2.2 3.4 4.4 6.2 5 6.2.5 0 1 1.2 1 2.7l-.1 2.8-2-2.5c-1.9-2.3-9.9-17.2-8.5-15.9.3.3 2.4 3.3 4.6 6.7zm521.2-4.7c35.3 2.4 62.3 8.6 89.8 20.6 6.9 3 12.7 5.7 13 6 .3.2-1.3.2-3.5-.2l-4-.6 5 2.8c9.1 5.2 13.9 8.5 20.8 14 3.7 3 6.7 5.1 6.7 4.8 0-.4-2.6-3.4-5.7-6.8-3.2-3.4-4.4-5.1-2.8-3.7 8.9 7.4 11.9 12.4 11.8 19.7 0 5.5-.7 7.2-9.8 23.8-4.9 9-5 9-5 18.5 0 5.2.4 14.5.9 20.6.9 12-.3 21-3.1 22.1-.8.3-6.2-1.7-12.1-4.5-26.4-12.5-49.3-21.1-68.6-25.7-22.8-5.5-55.8-8-93.6-7.2-37.5.8-67 3.7-114 11.2-21.3 3.4-27.9 4.6-80.9 14.5-65 12.1-108.1 18.2-143.6 20.5-5.5.4-23.1 1.7-39.2 3.1-29 2.4-49.6 3-62.6 1.7-6.2-.5-6.9-.8-8.3-3.5-2.3-4.5-2.8-15.4-1.5-30.1 1.6-16.5.9-20.5-6.3-38.6-7.2-18.2-7.6-19.5-7.6-26.1 0-5.1.3-6 2.6-7.5 5.2-3.4 16.5-4.4 47.9-4.5 104.7-.1 180.4-7.5 301-29.4 74.3-13.5 130-18.5 172.7-15.5zm117.1 6.1c1.9.3 2.2 1 2.5 5.1.3 4.2-.1 5.3-2.7 8.3-3.1 3.4-4 6.4-2.1 6.4.6 0 1-.5 1-1.1 0-.8.5-.8 1.5.1 1.7 1.4 1.9 3.8.6 5.8-.7 1.2-4-.3-12-5.5-1.3-.8 1.4-5.2 4.1-6.5 3-1.5 3.1-1.7.9-1.7-1.8-.1-2.2-.5-1.6-1.9.3-.9 1.6-4.5 2.8-8 1.7-4.9 2.3-5.8 2.5-3.8.2 1.7 1 2.6 2.5 2.8zM112 569.7c0 .2-1.3.3-2.8.3-2.5 0-3-.6-5.1-6.3-3.4-9-5.1-15.7-5.1-19.7 0-2.9 1.2-.9 6.5 11 3.6 8 6.5 14.6 6.5 14.7zm653.4-26.1c.9.3 1.6 1.8 1.6 3.1 0 2.5-3.5 9.3-4.8 9.3-.4 0-2.2 1.4-4 3.1-2.6 2.5-3 3.3-2.2 4.9.6 1.1 2.2 2.3 3.5 2.6 7.7 1.9 3.2 9.4-5.7 9.4-4.2 0-8.2 2-8.6 4.3-.3 1.2.3 1.7 2.1 1.7 3.1 0 4.3 2.7 2.2 5-1.7 1.9-8.6 4-13 4-2.1 0-2.6-.4-2.1-1.6.3-.9.6-3.6.6-6 0-4.1.2-4.4 2.6-4.4 1.4 0 2.3-.4 1.9-1-.3-.6-1.7-1-3-1-1.2 0-2.5-.7-2.8-1.5-.9-2.2 4.1-5.2 11.1-6.6 3.4-.7 6.2-1.6 6.2-2 0-.5-2.1-.9-4.7-1.1l-4.8-.3 5.1-1.9c2.8-1 5.7-2.8 6.3-3.9 1.1-1.7 1.1-1.9-.3-1.4-.9.4-1.6.2-1.6-.4 0-.5 1.1-1.4 2.5-1.9 1.9-.7 2.6-1.9 3.1-5 .4-2.6 1.6-4.8 3.2-6 2.7-2.2 3.2-2.3 5.6-1.4zM73.7 557.4c2.9.9 6.5 2.7 8 3.9 1.5 1.3 4.8 2.9 7.3 3.6 2.5.7 6 2.1 7.9 3.1l3.5 1.7-3.2-.1c-1.8-.1-3.2-.6-3.2-1.4 0-.6-.7-1.2-1.6-1.2-1.1 0-1.4.6-.9 2 .8 2.6-2 2.8-3.4.2-.9-1.5-1-1.5-1.1.5 0 1.3-.5 2.3-1.1 2.3-1.6 0-3.8-3.1-3.9-5.3 0-2-2-2.3-2-.3 0 .8.5 2.7 1 4.1 1.5 3.9-1.1 2.8-3.2-1.5-.9-1.8-2.2-3.8-2.7-4.3-1.8-1.8-1.3 1 1 5.4 1.1 2.3 1.8 4.3 1.6 4.5-1.7 1.7-10.2-5.1-13.9-11.1-2.2-3.6-2.4-1.2-.3 2.9.9 1.6 1.4 3 1.2 3.2-.2.2-2.2-1-4.5-2.7-4.2-3-5.9-2.7-2.4.4 2 1.8 9.2 6.1 13.5 7.9 3.5 1.6 3.4 2.4-.3 3.7-3.6 1.2-4 2.4-.6 1.5 2.2-.5 2.4-.2 2.8 3.8.3 2.4.4 4.4.2 4.6-.5.8-18.6-18.8-21.2-22.9-2.7-4.3-5.2-9.4-5.2-10.6 0-1.2 21.7.5 26.7 2.1zm662.8 3.6c-1.4 2.7-2.8 5-3 5-.3 0 .6-2.3 2-5 1.4-2.8 2.8-5 3-5 .3 0-.6 2.2-2 5zm7.5-2.6c0 .2-.8 1-1.7 1.7-1.6 1.3-1.7 1.2-.4-.4 1.3-1.6 2.1-2.1 2.1-1.3zm-13 3.4c0 .5-.7 1.7-1.6 2.8-.8 1-1.4 1.4-1.1.9.2-.6.7-1.8 1-2.8.7-1.7 1.7-2.3 1.7-.9zm36.3 23.9c-.7.2-2.1.2-3 0-1-.3-.4-.5 1.2-.5 1.7 0 2.4.2 1.8.5zm-2.8 3.3c-1.1.5-2.9.8-4 .8-1.6 0-1.5-.2.5-.8 3.4-1.1 6-1.1 3.5 0zm2.7 2.2c-.8.8-4.5 1.3-9 1.5l-7.7.2 8.5-1.3c4.7-.7 8.7-1.4 9-1.4.2-.1-.2.4-.8 1zm-33.2 5.3c0 .8-.9 1.9-2 2.5-2.3 1.2-2.4 1-.9-2.4 1.2-2.6 2.9-2.6 2.9-.1zm-671.7 0c15.5 1.9 16.1 2.3 10.6 6.7-2.4 1.9-6.4 4.8-8.8 6.4-7.1 4.6-2.8 3.9 6.4-1.1 4.7-2.6 8.5-4.4 8.5-4.1 0 .3-2.5 2.5-5.6 5-6.2 5.1-5.1 6 2.6 2.1 6-3.1 6.5-1.8 1 2.5-5 4-4.6 4.9.9 2.1 2.2-1.2 4.3-2.1 4.6-2.1 1.1 0 .4 2.4-1.2 4.3-1.8 1.9-1.7 2 .9 1.3 2.1-.5 2.8-.2 3.3 1.5.4 1.1.5 2.3.2 2.5-.7.7-13.3-2.4-20.9-5.1-3.7-1.4-9.4-4.3-12.5-6.5-3.2-2.3-8.3-5.7-11.3-7.7s-6.6-4.5-7.8-5.7l-2.4-2.1 8.4-.6c4.5-.3 9-.6 9.8-.7.8-.1 6.8.5 13.3 1.3zm688.7 4.4c0 .5-.9.7-2 .4-1.1-.3-2-.7-2-.9 0-.2.9-.4 2-.4s2 .4 2 .9zm-1.1 2.7c1 .9-5.6.3-6.9-.7-1.1-.7-.4-.8 2.5-.3 2.2.4 4.2.8 4.4 1zm-3.4 2.5c1.4 1.3-3.4 1-8-.6l-4-1.4 5.5.6c3 .3 5.9.9 6.5 1.4zM728 611c1.1.7.7 1-1.8 1-2 0-3.1-.4-2.7-1 .8-1.3 2.6-1.3 4.5 0zm-2.7 3.7c-.7.2-1.9.2-2.5 0-.7-.3-.2-.5 1.2-.5s1.9.2 1.3.5zm12.7 24c15.5 4.6 34.1 13.7 41.2 20.2 8 7.3 10.7 14.1 7.4 18.6-1.2 1.7-1.5 1.6-3.3-2.6-1.1-2.4-3.2-5.8-4.6-7.5-3.4-4-12.4-10.1-16.2-11-2.9-.6-2.9-.6 1 2.1 10.3 7.1 20.5 17.6 20.5 21.2 0 2.4-2.7 1.4-3.9-1.5-1.5-3.6-11.2-13.6-16.4-16.9-2.3-1.5-6.2-3.2-8.7-3.9-3.3-1-4-1-2.7-.1 1.1.7 5.2 3.3 9.2 6 11.2 7.3 22.3 19.7 17.7 19.7-.4 0-1.6-1.6-2.7-3.6-1-2-4.1-5.5-6.7-7.9-4.5-4.1-11.5-8.1-12.4-7.2-.2.2 2.4 2.6 5.8 5.3 9.9 7.7 16 14.4 13.1 14.4-.3 0-3-2.7-6-5.9-3.5-3.9-7.5-7-11.5-9-9.4-4.7-10.2-3.7-1.5 1.9 4.2 2.7 7.7 5.1 7.7 5.4 0 .2-2.8-1.1-6.2-3-3.5-1.8-7.4-3.4-8.8-3.4-1.9 0-.4 1.2 5.5 4.6 4.4 2.5 9.4 5.6 11 6.8 6.5 4.8 7.1 4.5 2.3-1.1l-3.2-3.8 4.2 3.9c3.7 3.5 4 4.1 2.4 5.2-1.4 1-2.3.6-6-2.7-3.9-3.4-14.8-8.6-15.9-7.6-.2.2 4 3 9.2 6.1 7.9 4.7 9.4 6 8.4 7.2-.9 1.1-1.8.8-5.1-2-5.2-4.5-12.4-8-21.8-10.5-11.8-3.3-11.5-2.4 1 2.5 6.3 2.5 14.2 6.3 17.6 8.5l6.1 3.9-1.1 4-1 4-3.1-2.8c-4.8-4.6-9.3-7.3-14.2-8.8-2.6-.8-4.8-1.2-5-1-.2.2 2.6 2 6.2 4 10.4 5.7 16.5 10.6 16.7 13.6.3 4 .8 8.2 1.4 12.4l.7 3.9-4.5-3.6c-4.9-4-13.4-8.2-18.8-9.2-2.5-.4-.1 1.2 8 5.6 6.3 3.4 12.5 6.7 13.7 7.3 1.6.8 2.3 2 2.3 4v2.9l-4.6-4.3c-4.9-4.5-14.7-9.6-20.4-10.5-2.8-.5-1.8.2 4.4 3.4 4.3 2.3 11 6.2 14.7 8.7l6.9 4.5-.1 5.7c-.1 3.1-.3 5.9-.5 6.2-.1.4-3.9-2.9-8.3-7.1-11.4-10.9-27.9-19-59.7-29.3-13.9-4.4-16.5-5-33.9-7.5-32.1-4.7-49.1-4.6-64 .4-7.1 2.4-9.4 2.6-5.6.5 4.3-2.2 17.9-5.1 27.1-5.7 8.3-.5 29.7 1.4 47.5 4.2 2.8.5 2.8.4.6-.5-1.3-.6-8.5-2.2-16-3.6-16.2-3.1-35.2-3.5-44.1-1.1-3 .9-5.6 1.4-5.8 1.3-.1-.2 2.5-1.4 5.8-2.6 5.7-2.1 7.2-2.2 21.3-1.7 9.5.3 18.9 1.3 25.1 2.6 5.5 1.2 10.1 1.9 10.4 1.7 1.3-1.4-17.6-5.9-29.3-7-7.2-.6-12-1.5-10.7-1.8 2.9-.8 21.6 1.6 32 4.2 10.8 2.6 11.1 2.5 2.6-1-6.2-2.5-13.1-4.2-21.4-5.3-2.5-.3-2.5-.3.4-1.2 2.1-.6 5.8 0 13.8 2.2 5.9 1.6 10.8 2.7 10.8 2.4 0-1.1-5.3-3.9-10-5.2-2.5-.7-3.8-1.4-2.9-1.6.9-.2 5.6 1.2 10.4 3.1 8.4 3.4 10.1 2.9 3-1-1.9-1-3.5-2.2-3.5-2.6 0-1.1.2-1 4.3.7 2.7 1.1 3.5 1.2 3.2.3-.4-1 3.7-1.3 18.7-1.3 19.2 0 19.3 0 24-2.7 3.5-2.1 5-3.8 6.3-7.1 1.9-5 2.4-14.8 1.2-26l-.8-7.9 3.3.7c1.8.4 8.5 2.3 14.8 4.2zm-93.3 8.5c-.3.8-.6.5-.6-.6-.1-1.1.2-1.7.5-1.3.3.3.4 1.2.1 1.9zm4.3-.5c0 1.6-1.1 9-3.4 23.8l-.7 4 2.1-4.5 2-4.5-.5 4-.5 4 2.4-5c2.9-6.1 5-15.8 4.2-19.1-.5-1.7-.2-2.4.9-2.4 2.1 0 1.9 2.8-1 14.8-3 12.3-3 12.7-.4 8.2l2-3.5-.6 3.5-.6 3.5 2.1-3.5 2.1-3.5-.6 3.5c-.4 3.2-.3 3.1 2.1-1.8 1.4-3 3.1-8 3.7-11.3 1.3-6.4 3.2-8.3 2.2-2.2-1 6.2-2.7 12.3-3.6 12.9-.5.3-.9 1.2-.9 2.1 0 2.1 3.5-2.3 5.5-6.9 1.9-4.4 1.9-2.2 0 3.2-2.2 6.1-1.2 6 1.9-.1 3.1-6.3 3.5-5.1.5 1.7-1.9 4.6-1.9 4.7-.1 3.1 2-1.8 4.5-7.1 5.8-12.2.7-2.6.8-2.7 1.1-.8.3 1.2-.7 5-2.1 8.5l-2.5 6.3 3.1-3.5 3-3.5-1.7 3.3c-.9 1.9-1.4 3.6-1.1 3.9.7.7 5.2-6.7 6.6-11 .6-2 1.4-3.7 1.6-3.7 1 0-.9 7.6-2.9 11.5l-2 4 2.1-1.8c1.1-1 2.7-3.3 3.6-5 .8-1.8 1.6-2.6 1.6-1.9 0 .7-.7 2.7-1.5 4.5l-1.6 3.2 3.2-3.5 3.1-3.5-1.7 3.5-1.6 3.5 2.7-3c1.5-1.7 2.5-2.3 2.2-1.5-.3.8-.9 2.3-1.3 3.2-1.1 2.7 2.5 1.5 5.2-1.8 2.4-3 3.1-1.9 1.2 1.9-.8 1.7-.5 1.6 1.5-.6 2.9-3.1 3-3 1.7.6-.8 2-.7 2.5.6 2.3.9-.2 2.4-1.3 3.5-2.5 2-2.6 2.4-2 .7 1.2l-1.2 2.2 2.4-2.1c1.8-1.7 2.9-2 4.7-1.3 2.9 1.1 2.8 1.7-.5 3.1-1.9.8-11.7 1.2-30.3 1.3-24.3.1-28.6.3-37 2.2-18.6 4.2-35.9 10.6-45.6 16.8L591 698l-1.1-2.7c-.7-2-.7-2.9.3-3.4.7-.4 2.9-1.9 4.8-3.4 2.1-1.5 3.6-2.1 3.9-1.4.2.6.9 0 1.5-1.3.6-1.2 1.8-2.3 2.6-2.3s2-.9 2.5-1.9c1.5-2.9 3.3-3 3.8-.4.3 1.8.5 1.6.6-.8 0-1.7.8-3.7 1.6-4.4 1.3-1.1 1.5-.6 1.5 3.6 0 3.5.3 4.5 1 3.4.5-.8 1-3.1 1-5s.5-4.2 1-5c.7-1.1 1 .2 1 4.5.1 7 1.3 5.2 2.4-3.8.4-3.1 1.2-5.7 1.7-5.7s1 3.3 1 7.2l.1 7.3 1.3-8.2c1.8-11.5 2.3-12.2 1.7-2.3-.2 4.7-.2 8.3.1 8 .3-.3 1.2-4.7 2.1-9.9.8-5.1 1.7-9.6 2-9.9.3-.3.3 4-.1 9.4-.3 5.4-.3 9.7 0 9.4.3-.3 1.3-5.3 2.2-11 1-5.9 2.3-11.2 3.1-12 1.7-1.7 1.8-2.8-1.1 11.3-.9 4.3-1.4 8.1-1.2 8.4.7.7 5.7-15.1 6.4-20.4.3-2.4 1-4.6 1.4-4.9 1.2-.7 1.2-.7-1.6 13.4-1.4 6.8-2.4 12.7-2.1 12.9.3.3 1.7-3.5 3.1-8.3 1.5-4.9 2.9-9.4 3.1-9.9.4-1-.2 5.1-1.2 11.5-.4 2.7-.3 3.1.5 1.9 1.7-2.6 5.1-17.9 5.1-22.7 0-2.3.5-4.2 1-4.2.6 0 1 .8 1 1.7zm3.5 3.5c-1 6.9-2.8 14.8-3.2 14.4-.2-.2.3-4.3 1.2-9.1.8-4.8 1.5-8.9 1.5-9.1 0-.2.3-.4.6-.4s.3 1.9-.1 4.2zm-565 11.5c0 15.6 1.1 20.5 5.4 24.9 4.5 4.6 8.5 5.3 31.9 5.5l21.3.2-3.8 2.5c-6.1 4-6.2 4.5-.3 2.2 10-4 12.9-4.9 13.4-4.1.3.4-1.4 1.2-3.8 1.9-2.3.6-5.3 2-6.6 3-2.1 1.7-1 1.6 9.3-1.1 9.2-2.4 12.2-2.8 14-1.9 2.1 1 2.1 1.1-.8 1.1-6.1.2-27.4 6.5-26.2 7.7.3.3 4-.4 8.3-1.5 9.5-2.4 21.8-4.1 28.2-4 6.8.1 4.2.7-8.3 1.8-10.4 1-26.6 4.8-28.6 6.8-.5.5 3.9-.1 9.8-1.4 14.9-3.3 41.3-3.8 48.6-.9 2.6 1 4.6 2 4.5 2.2-.2.1-3-.4-6.3-1.2-12.4-2.9-41.6-.8-57.5 4.1l-4.5 1.4 6-.4c3.8-.3 1.3.4-7 1.9-21.4 3.9-61.1 18.4-74.5 27.3-3 2-8.3 6.5-11.7 9.9-3.4 3.5-6.4 6-6.6 5.6-.2-.4-.4-3.2-.5-6.2l-.2-5.5 5.6-3.9c3-2.1 9.7-6 14.7-8.8 6.9-3.7 8.3-4.8 5.7-4.3-5.9 1.1-15.6 6.1-20.4 10.5l-4.6 4.3v-3.2c0-1.7.4-3.1.9-3.1s6.7-3.2 13.7-7.1c8.8-4.8 11.8-6.8 9.4-6.4-5.2 1-12.9 4.7-18.2 8.8L43 734v-2.9c0-1.6.7-3.7 1.6-4.5 3.2-3.2 14.1-10.5 20.9-14 7.5-3.8 7-4.7-1.1-2-6 2.1-9.4 4.3-15.8 10.3l-4.8 4.6.7-5c.5-2.8.7-6.2.6-7.7-.1-2.2.8-3.4 4.1-5.9 4.4-3.2 21.6-11.9 23.7-11.9.6 0 1.1-.5 1.1-1 0-1.3.4-1.3-6.1.6-7.7 2.3-14.4 5.9-19.4 10.5-3.8 3.6-4.3 3.7-4.8 2-.4-1.6.6-2.7 4.2-5 5.3-3.4 14.7-7.8 23.9-11.1 3.4-1.3 6.1-2.5 5.8-2.7-.8-.8-14.1 3-20.5 5.8-3.5 1.6-8.3 4.5-10.7 6.4-3.4 2.8-4.4 3.2-5.3 2.1-1.1-1.3 2.9-4.1 16.4-11.4 2-1.1 2-1.1-.2-1.2-3.5 0-10.9 3.6-15.4 7.7-2.3 2.1-4 3.1-3.7 2.3.7-2.2 8.8-8 17-12.2 5.5-2.8 6.7-3.7 4.7-3.8-4 0-14.9 5.9-19.5 10.6-3.1 3.2-4.6 4.1-6.3 3.7-1.1-.3-2.1-.8-2.1-1.2.1-1.4 5-6.3 12.8-12.5 8.4-6.7 9.1-8.1 2.4-4.7-5.4 2.8-12.7 9.5-14.6 13.6-1.7 3.5-3 4.3-4.1 2.6-1-1.7 10.7-13.1 19.7-19.1 9.5-6.4 9.4-8-.2-2.9-6.4 3.4-15.8 12.2-18.6 17.5-1.9 3.4-4.4 4.6-4.4 2 0-3.5 10.3-14 20.4-20.8 4.5-3 3.5-3.6-2-1.3-4.9 2-15.7 12.7-18 17.6-1.6 3.7-1.9 3.9-3.1 2.3-2-2.8-1.5-6.6 1.5-11.5 5.2-8.1 14.8-14.7 31.5-21.4 6.5-2.7 29.5-10.3 31.7-10.5.3 0 .5 6.2.5 13.7zm575.2-9.5c-.3.7-.5.2-.5-1.2s.2-1.9.5-1.3c.2.7.2 1.9 0 2.5zm-19 3c-.3.7-.5.2-.5-1.2s.2-1.9.5-1.3c.2.7.2 1.9 0 2.5zm26 1c-.3.7-.5.2-.5-1.2s.2-1.9.5-1.3c.2.7.2 1.9 0 2.5zm3 1.5c-.3 1-.5.4-.5-1.2 0-1.7.2-2.4.5-1.8.2.7.2 2.1 0 3zm19.6 12.8c-.3.9-.8 1.4-1 1.1-.3-.3-.2-.9.2-1.5.9-1.6 1.5-1.3.8.4zm-498.8 17.2c1 10.8 2.6 12.3 2.1 2-.2-4.8 0-8.7.5-8.7s.9.1 1 .2c0 .2.6 3.9 1.4 8.3l1.3 8 .1-8.3c0-4.7.5-8.2 1.1-8.2.6 0 1 .6 1.1 1.2 0 .7.7 5.1 1.4 9.8l1.3 8.5.1-10c.1-12.7 1.8-11.7 3.6 2.2l1.3 9.8.1-9c.1-8.4.2-8.8 1.8-7.2 1.2 1.2 1.8 3.8 2.1 9 .5 10 2.2 11.1 2.2 1.4 0-7.6 0-7.7 2.1-6.5 1.9 1.2 2 2 1.7 10.8-.4 11.7-1.1 13-4.7 9.7-5.5-5.2-25.5-13.4-42.4-17.3-7-1.6-7.6-2-8.1-4.7-1.2-5.9 0-7.9 2.2-3.5l1.1 2.3v-2.3c.1-2.3 2.1-3.2 2.1-1 .1.7.7 2.6 1.5 4.3l1.4 3-.6-4.3c-.7-5.3.9-5.5 3-.5l1.6 3.8-.5-4.4c-.9-6.3 1.1-4.4 2.2 2.1l.8 5.3.6-6c.6-6.3.8-6.1 2.8 3.5l1 4.5.2-7 .3-7 1.2 7.5 1.2 7.5.2-7.3c0-3.9.5-7.2 1-7.2s1.3 2.6 1.7 5.7c1.2 9.7 2.5 10.7 2.1 1.5-.4-9.9.9-11 1.8-1.5zm-33.2-.5c1.2 2.6 1.6 2.8 1.7 1.3 0-1.7.2-1.7 1-.5 1.5 2.3 1.2 3-1.5 3-1.4 0-2.5-.1-2.5-.3 0-.1-.4-1.7-.9-3.5-1.2-4.1.1-4.1 2.2 0zm-58.2-.2c2.1 1.7 2.2 1.9.6 2-1.8 0-7.7-2.7-7.7-3.5 0-1.3 5.1-.3 7.1 1.5zm42.3-.6c-.8-2-.6-1.9 1.5.8 1.2 1.6.7 1.7-6.6 1.4-4.3-.1-8.5.1-9.4.6-1.1.5-2.1.2-2.9-.7-1.8-2.1-.3-3.2 2.2-1.6 1.1.7 1.7.8 1.3.2-.9-1.5.8-1.4 2.3.1.9.9 1.2.9 1.2-.1s.3-1.1 1.4-.2c1.1.9 1.5.9 1.8-.1.4-1 .8-1 2.1.1 1.5 1.2 1.7 1.1 1.7-.4 0-1.7.1-1.7 2 0 2 1.8 2.1 1.8 1.4-.1zm6 .8l1.7 2.3-.6-2.3c-.4-1.2-.2-2.2.3-2.2s1.4 1 2.1 2.2l1.2 2.3-.5-2.3c-.6-3 .8-2.8 2.3.4l1.2 2.7-4.7-.6c-2.5-.2-5-1.1-5.5-1.8-2.2-3.5.1-4 2.5-.7zm-43.6 2.4c-.4.3-1.2-.5-1.8-1.8-1.2-2.2-1.2-2.2.6-.6 1 1 1.5 2 1.2 2.4zm3.2-1.6c.6 1.1.7 2 .2 2-1 0-3.2-2.1-3.2-3.2 0-1.6 1.9-.8 3 1.2zm4.7-.3c-.8-2.1.8-2.2 4.5-.3 2.3 1.2 2.6 1.2 2.1 0-.6-1.7 1.8-1.9 3.5-.2 2.3 2.3 1.2 2.8-5.8 2.8-3.8 0-7-.2-7-.4s-.3-1.3-.7-2.3c-.6-1.6-.4-1.6 1.7.2 2 1.7 2.3 1.8 1.7.2zM588 697.8c0 1.8-5 3.5-7.3 2.5-1.7-.8-1.5-1.2 1.9-3.5 3.8-2.5 5.3-2.2 5.4 1zm40-.2c2 .5 2.2.4 1-.6-1.2-.9.8-1 8.5-.5 5.5.3 11.7.9 13.9 1.2l3.9.6-2.9 1.2c-2.7 1.1-9.1 1-12.4-.2-4.9-1.9-7.2-.2-6.4 4.6l.6 3.7-6.4-.4c-3.4-.2-7.8-1.1-9.7-1.8-6.2-2.6-13.3-1.2-10.2 1.9.6.6 1.1 2.2 1.1 3.5 0 2.1-.3 2.3-3.2 1.7-4.1-.8-10.8-3.5-12.8-5.1-.8-.7-3.5-1.7-5.9-2.4-2.3-.6-4.1-1.3-3.9-1.5.2-.3 2 0 3.9.5 3.4 1 11.5 1.3 9.2.3-.7-.2-1.3-.9-1.3-1.5 0-.9 2.1-.7 7.5.9 2 .6 2 .5.1-1.6-2-2.2-1.6-2.5 3.3-2.1 1.6.1 2.1-.2 1.6-1-.6-.9.1-1 2.5-.5 2.3.5 3 .4 2.6-.4-1.1-1.7.6-1.3 6.8 1.4 7.3 3.2 7.9 3.1 3.6-.7l-3.5-3 3 .6c1.7.3 4.1.8 5.5 1.2zm-44.1 9.4c2.3.6 4.1 1.3 3.9 1.5-.5.6-8.9-1.4-10.7-2.6-1.8-1.1-1.8-1.1 6.8 1.1zm-380.8 2c8.2 2.1 12.5 3.8 11.7 4.6-.3.2-3.8-.8-7.9-2.3-6.9-2.5-8.6-2.7-24.4-2.7-9.3-.1-21 .2-26 .6-12.1.9-8.8.1 6.5-1.7 15.5-1.8 29.3-1.2 40.1 1.5zm25.4 3c-1 1.1-2.3 2-2.9 2-.6 0 0-.9 1.4-2 3.2-2.5 3.8-2.5 1.5 0zm-5.5.4c0 .2-.8 1-1.7 1.7-1.6 1.3-1.7 1.2-.4-.4 1.3-1.6 2.1-2.1 2.1-1.3zm-56.5 4.1c-2.2 1.9-4.7 3.5-5.5 3.5-.8 0 .8-1.5 3.5-3.4 6.4-4.4 7-4.4 2-.1zm477-2.3c1.4.6 2.5 1.5 2.5 2 0 .8-1.7.1-5-2.2-2-1.3-.7-1.3 2.5.2zM190.1 718c-2.4 2.2-5.1 4-6 4-.9 0 .9-1.8 3.9-4 7-5 7.7-5 2.1 0zm428.5-1.2c-.4.3-1.4-.2-2.4-1.2-1.6-1.8-1.6-1.8.6-.6 1.3.6 2.1 1.4 1.8 1.8zm2.9-1.8c.3.5.2 1-.4 1-.5 0-1.3-.5-1.6-1-.3-.6-.2-1 .4-1 .5 0 1.3.4 1.6 1zm20 5.3c.6.6.1.7-1.5.2-2.5-.7-9-5.1-9-6.1 0-.6 9 4.5 10.5 5.9zm-.4-4.2c1.9 1.6 2 1.8.4 1-3.4-1.7-5.1-3.1-3.9-3.1.7 0 2.2.9 3.5 2.1zM170.2 718c-1.8 1.7-3.7 3-4.4 3-1 0 6.1-5.8 7.2-5.9.3 0-1 1.3-2.8 2.9zm448.8-.5c2.2-.7 2.5.1 1 2.5-.8 1.3-1.4 1-3.7-1.4-1.5-1.7-2-2.4-1.1-1.7.9.7 2.6 1 3.8.6zm-424.3 2c-1.5 1.4-3.3 2.5-4 2.5-.6 0 .4-1.1 2.3-2.5 4.5-3.1 5.3-3.1 1.7 0zm-18.7-.1c0 .2-.7.7-1.6 1-.8.3-1.2.2-.9-.4.6-1 2.5-1.4 2.5-.6zm22 1.1c-.7.8-1.7 1.5-2.3 1.5-.6 0-.2-.7.9-1.5 2.5-1.9 3-1.9 1.4 0zm415.1.2c1.3 1.6 1.2 1.7-.3.4-1-.7-1.8-1.5-1.8-1.7 0-.8.8-.3 2.1 1.3z"/><path d="M656 93.4c0 .2 1.2 2.5 2.6 5 1.5 2.6 2.4 4.9 2.1 5.2-.2.3-2.1-.5-4.1-1.7-2-1.2-3.9-1.9-4.2-1.6-.8.8 4.1 3.8 6.8 4.1 1.2.1 2.5.6 2.7 1.2.5 1 4.6 4.4 5.4 4.4.3 0-1-2.6-3-5.8-1.9-3.1-4.3-6.9-5.2-8.4-1.4-2.4-3.1-3.7-3.1-2.4zM136.7 108.7c-.4.3-.7 1.1-.7 1.7 0 .6.5.5 1.2-.2.6-.6.9-1.4.7-1.7-.3-.3-.9-.2-1.2.2zM92 110.4c0 .9.7 1.6 1.6 1.6 1.7 0 1.4-2.2-.4-2.8-.7-.2-1.2.3-1.2 1.2zM469.2 149.6c-4.6 3.7-6.2 7.3-6.2 14.7 0 8.3 2 10.7 8.9 10.7 5.8 0 10.8-3 13.3-8 6.3-12.4-5.7-25.5-16-17.4zM575.7 205.5c-10.3 3.6-15 15.3-8.8 21.6 7.3 7.3 22.2-.8 23.8-13 .5-3.5.2-4.4-2.5-7.1-3.4-3.4-6.4-3.7-12.5-1.5zM105 207.5c-2 2.4-.6 2.8 1.5.5 1-1.1 1.3-2 .8-2-.6 0-1.6.7-2.3 1.5zM47 229c0 .5.5 1 1.1 1 .5 0 .7-.5.4-1-.3-.6-.8-1-1.1-1-.2 0-.4.4-.4 1zM124.7 187.1c-.5 1.8-1.1 2.1-3.7 1.5-3.4-.6-3.8.9-.7 2.8 2.9 1.9 8.4-3.1 6.1-5.4-.8-.8-1.3-.5-1.7 1.1zM148.7 198.7c-.4.3-.7 1.1-.7 1.7 0 .6.5.5 1.2-.2.6-.6.9-1.4.7-1.7-.3-.3-.9-.2-1.2.2zM395.5 400.7c-16 8.4-16.1 30.9-.2 38.8 6.6 3.2 12.5 3.3 19.4 0 15.8-7.3 15.9-30.5.2-38.5-4.8-2.5-15-2.6-19.4-.3zm16.5 6.8c9.1 4.7 10.4 16.4 2.5 23.4-6.4 5.6-14.7 5-20.3-1.3-1.6-1.9-3.2-5-3.6-7-.9-5 2.2-11.9 6.6-14.6 3.9-2.4 10.7-2.6 14.8-.5zM319.1 409.7c-.6 3.8-1.4 8-1.7 9.5-.4 2.1-.2 2.8 1 2.8.8 0 1.8-.9 2.1-2 .3-1.1 1.2-2 2-2 .7 0 1.5.9 1.8 2 .6 2.5 2.7 2.7 2.7.2 0-.9-.5-5.2-1.2-9.5-1-6.9-1.4-7.7-3.4-7.7-1.9 0-2.3.8-3.3 6.7zm3.6 4c-.3 1-.5.4-.5-1.2 0-1.7.2-2.4.5-1.8.2.7.2 2.1 0 3zM331 412.5c0 7.8.3 9.5 1.5 9.5 1.1 0 1.5-1.2 1.6-4.8l.1-4.7 1.1 4.5c1.4 5.3 3.9 6 4.8 1.5l.7-3 .1 3.2c.1 2.2.6 3.3 1.6 3.3 1.2 0 1.5-1.7 1.5-9.5 0-8.7-.2-9.5-1.9-9.5-1.6 0-2.1.9-2.7 4.5-.9 6.2-2.1 6.4-2.9.5-.6-4.4-1-5-3.1-5-2.4 0-2.4.1-2.4 9.5zM460 404.5c0 1 1 1.5 3.1 1.5 2.5 0 3 .3 2.5 1.7-.4.9-1.1 3.7-1.7 6.2-.5 2.5-1.2 5.4-1.5 6.4-.4 1.4-.1 1.8 1.2 1.5 1.2-.2 2.2-2.4 3.5-7.8 2.7-11 2.7-11-2.6-11-3.3 0-4.5.4-4.5 1.5zM472.6 409.5c-3.2 8-3.2 8.5-.1 8.5 1.8 0 2.5.5 2.5 2 0 1.1.7 2 1.5 2s1.5-.9 1.5-2 .5-2 1-2c.6 0 1-.7 1-1.5s-.5-1.5-1.1-1.5c-.6 0-.9-2.2-.7-6 .3-5.1.1-6-1.3-6-1.1 0-2.5 2.1-4.3 6.5zM485.2 404.2c-.7.7-1.2 4.2-1.2 8.5 0 6.9.1 7.4 2.6 8.5 4.4 2 5.9.2 6.2-8.1.2-4.5-.2-7.8-.9-8.7-1.4-1.7-5.1-1.8-6.7-.2zm4.8 8.4c0 4.8-.3 6.5-1.2 6.2-.8-.3-1.4-2.8-1.6-6.6-.2-5.1 0-6.2 1.3-6.2 1.2 0 1.5 1.3 1.5 6.6zM54 322.8c0 2.7 7.5 31 8.5 32 1.5 1.5 1.6-1.4.2-6-.8-2.9-2.8-10.6-4.3-17.1-2.7-11.2-4.4-14.8-4.4-8.9zM729 358.8c0 .5.7 1.7 1.5 2.8 1.5 1.9 2 .8.9-2-.6-1.7-2.4-2.2-2.4-.8zM778.5 359c-.3.5-.1 1 .4 1 .6 0 1.1-.5 1.1-1 0-.6-.2-1-.4-1-.3 0-.8.4-1.1 1zM777 363c0 .5.5 1 1 1 .6 0 1-.5 1-1 0-.6-.4-1-1-1-.5 0-1 .4-1 1zM775 407c-.8.5-1.2 1.2-.9 1.5.8.8 3.9-.5 3.9-1.6s-1.1-1.1-3 .1zM68.5 496c-1.4 2.3 15.5 32 18.3 32 1.4 0-14.9-32.2-16.6-32.8-.6-.2-1.3.2-1.7.8zM736.2 502.7c-6.7 6.9-12 12.8-11.7 13.1.6.6 17.7-15.7 21.8-20.7 2.3-2.8 3.4-5.2 2.5-5.1-.2 0-5.8 5.7-12.6 12.7zM604 549.1c-5.3 1-7.4 3.3-6.4 6.9.3 1.4.7 5.4.8 9l.1 6.5-4.4-.3c-5.3-.3-8.4 1.5-11 6.6-2.4 4.7-3.5 15.5-2.2 21.3.5 2.4 1.2 5.6 1.5 7.1.8 3.4 8.1 8.1 10.6 6.8 2.1-1.1 12.6-1.5 16.1-.6l2.5.7-.3-11.8c-.2-6.5-.4-15.6-.6-20.3-.1-4.7-.5-9-.9-9.5-.4-.6 0-5.7.8-11.4.8-5.6 1.2-10.7.8-11.2-.6-1-1.2-1-7.4.2zm-5.6 35.5c1.9 1.8 2 4.5.5 11.4-1.2 5.7-2.9 6.4-5.6 2.3-2.3-3.5-2.2-10.6.2-13.3 2.2-2.4 2.9-2.5 4.9-.4zM621.4 550c-3.4 1.3-6.4 5.9-6.4 9.6 0 4.5 3 7.4 7.5 7.4 2.9 0 3.9-.6 5.5-3.3 2.4-3.8 2.5-6.6.6-11.2-1.5-3.6-3.1-4.2-7.2-2.5zM697.7 561c10 5.4 17.7 10.4 25.1 16.2 7.2 5.6 6.8 3.5-.6-3.4-6.1-5.8-14.9-11.5-22.2-14.5-8.8-3.6-10.2-2.6-2.3 1.7zM511 560.4c-3 1.1-3.5 1.7-3.2 4.2 1.2 13.6 2.2 26.9 2.8 37.7.4 7.9 1.1 13 1.8 13.2 11.8 2.9 12.6 2.5 12.6-5.1 0-4.7.3-5.5 1.8-5.2 1 .2 2.2 2 3 4.3 1.8 5.5 3.4 7 6.1 5.6 1.1-.6 3.2-.9 4.6-.5 5.3 1.3 7.2-3.6 3-7.6-2.5-2.4-8.5-13.3-8.5-15.5 0-.7.8-2.3 1.8-3.6 3.6-4.7 5.7-17.9 3.1-19.4-.5-.4-1.4-1.8-1.9-3-.5-1.3-2.4-3.2-4.1-4.1-4.2-2.1-18.2-2.8-22.9-1zm17 12.5c2.4 4.6.5 12.1-3 12.1-2.4 0-4-2.8-4-7s1.6-7 4-7c1.1 0 2.4.9 3 1.9zM692.9 563.9c7.3 3.6 21.6 12.7 27.9 17.8 7.2 5.8 5.8 3-2.2-4.4-8.1-7.6-21.1-15-28.1-15.9-3.9-.6-3.8-.5 2.4 2.5zM405.4 568.4c-3.8 3.8-4.5 8.5-1.8 12.4 1.8 2.6 8.4 3.1 10.7.7 2.7-2.6 3-8 .7-12.5-2.6-5-5-5.2-9.6-.6zM696.5 572.1c9.3 5.3 24 15.3 25 16.9.4.6 1.1 1 1.8 1 .6 0-1.3-2.5-4.3-5.6-6.1-6.1-17.2-13.5-23.9-15.9-8.1-2.8-7.6-1.5 1.4 3.6zM458.3 570.9c-2.9 1.8-3.1 2.3-2.6 5.9.5 3.5.3 4.1-1.7 4.7-1.9.6-2.1 1.2-1.6 4.5.9 5.7 2.4 9 3.9 9s2.5 5.2 3.6 19.5l.6 8 4.4-.1c5.8-.1 7.5-2.3 6.5-8.4-1.3-8-.5-18.3 1.7-20.3 1-1 1.9-2.1 1.9-2.5-.1-2.6-2.9-9.1-4.7-11-1.3-1.2-2.3-3.4-2.3-5-.1-3.4-2.1-6.2-4.6-6.2-1 0-3.3.9-5.1 1.9zM564.5 573.1c-.5.8-2.7 1-6.5.6-3.1-.2-6.4-.1-7.2.4-2.6 1.4-3.8 6.7-4.2 18-.3 9.6-.1 10.7 2.1 14.6 1.4 2.4 3.8 5.3 5.5 6.4l3 2.2 3.9-2.2c2.1-1.2 4.4-1.9 5.1-1.5.7.4 3.4.9 6 1.1 5.9.3 7.3-1.6 6.4-8.7-.4-2.7-.9-8.1-1.2-12-.3-4-.9-10-1.2-13.4l-.7-6.1-5.2-.3c-3.1-.2-5.4.2-5.8.9zm.9 18c1.1 8.1.3 11.9-2.4 11.9-1.3 0-2.7-1.4-4-4-2.5-4.8-2.5-4.8 0-10.5 1.4-3.4 2.5-4.6 3.7-4.3 1.4.2 2 1.8 2.7 6.9zM618.3 573c-2.6 1.1-3 3.8-3.6 22.7-.5 15.4-.1 16.3 7.6 16.3 3.5 0 4.7-.4 5.1-1.8.7-2.6.1-35.6-.8-37-.8-1.4-5.1-1.5-8.3-.2zM638.1 575.6c-1.7 1.4-3.1 3.5-3.1 4.6 0 1-1 4.1-2.1 6.9-1.4 3.3-1.9 5.8-1.5 7.6.4 1.6 1.1 5.2 1.6 8.1 1.5 9.5 2.9 10.5 15.8 11.5 4.8.4 5.5.2 7.3-2.2 1-1.4 3.1-3.9 4.5-5.5 1.8-1.9 2.4-3.6 2.1-5.3-.2-1.4-.1-4 .3-5.9.5-2 .3-6.3-.3-10-1.1-6.1-1.4-6.7-5.5-9.5-3.5-2.4-5.3-2.9-10.2-2.9-4.8 0-6.4.4-8.9 2.6zm12.3 11.6c2.5 3.5 2 9.4-.9 12.4-2 2-2.9 2.3-4.4 1.4-1.7-.9-1.9-1.7-1.4-6.3.5-5.2 2.5-9.7 4.3-9.7.5 0 1.6 1 2.4 2.2zM697.5 578.4c5.5 3.1 13.7 8.3 18.2 11.6 9.9 7 8.8 4.1-1.5-4.3-7.6-6.2-17-11.2-22.8-12.2-3.3-.6-2.5.1 6.1 4.9zM91.6 577.6c-4.5 1.4-10 4.3-9.4 4.9.2.2 3.1-.3 6.6-1 3.4-.7 10.6-1.7 16-2.1 9.6-.7 9.7-.8 5.7-2-5.4-1.7-13-1.6-18.9.2zM696.5 583.3c7.2 3.6 15.3 8.1 18.2 10 8 5.4 8.3 5.3 1.8-.8-6.8-6.4-21.2-14-28.5-15-4-.6-3 .1 8.5 5.8zM344.5 580c-1.1.5-3.6.9-5.6.9-5.1.1-6.4 2-4.9 6.8.7 2.1 1.6 4.3 2.1 4.8.4.6 1.1 5.8 1.5 11.5.4 5.8 1 10.9 1.4 11.5.4.5 1 4.5 1.2 8.8.7 10.6 2.5 13.2 9.7 13.3 6.2.2 7-.9 5.2-7-3-10.1-3.1-11-1.4-12.8 1-1.1 3-1.8 5.5-1.8 2.8 0 4-.5 4.4-1.8.3-.9 1.7-4 3.1-6.8 2.2-4.4 2.5-6 2.1-11-.9-9.1-2.3-11.3-9.6-14.5-6.4-2.9-11-3.5-14.7-1.9zm11.3 13.8c2.9 3.7.3 11.2-3.8 11.2-2.4 0-4.4-5.2-3.6-9.4.9-4.7 4.3-5.6 7.4-1.8zM687.1 584.9c9.4 3.5 18.6 7.9 26.3 12.6 3.2 1.9 6.1 3.3 6.3 3.1.6-.6-9-8.1-14.3-11.2-6.3-3.7-17.2-7.4-21.9-7.3-3.8 0-3.7.1 3.6 2.8zM100 583.6c-1.9.2-6.3 1.1-9.8 2-7.5 2-9.6 4-3.1 3.1 2.4-.4 11.1-1.2 19.4-1.9 10.2-.8 14.1-1.4 12.2-1.9-3.8-1-14.4-1.8-18.7-1.3zM420.5 587c-.3 1-.1 2.9.5 4.1.7 1.1 1.4 6.4 1.7 11.7.3 5.4 1.2 10.9 1.9 12.4.8 1.5 1.4 4 1.4 5.6 0 4 2 5.4 7.2 5 5-.4 5.8-2.1 3.4-7.2-2.1-4.5-3.1-15.7-1.7-18.4 1.5-2.7 3.7-2.8 5.1-.2.6 1.1 1.3 6.6 1.6 12.2.3 6.4.9 10.5 1.7 11 2.5 1.7 5.9 2 8.7.8 3.4-1.4 3.8-3.5 1.6-9.6-.7-2.2-1.7-9.1-2.1-15.4-.4-6.3-1.2-12.1-1.7-12.8-1.6-1.8-11.7-1.6-13.9.4-1.6 1.5-2 1.5-4.1 0-1.2-.9-4.1-1.6-6.5-1.6-3.3 0-4.3.4-4.8 2zM673 585.4c0 .2 3 1.4 6.8 2.7 9.2 3 22.2 9.1 29.8 13.9 3.5 2.2 6.4 3.7 6.4 3.2 0-1.5-9-8.3-16.2-12.2-9.1-4.8-26.8-9.9-26.8-7.6zM263.1 587.4c-.8 1-2.4 1.2-5.1.9-5.1-.7-5.8.9-3.7 8 .9 2.9 1.6 7.8 1.6 11 .1 3.2.8 7.1 1.6 8.8.9 1.6 2 7.3 2.5 12.7 1.1 12.1 2.4 19 3.8 20.4 1.4 1.4 11.2 0 11.9-1.8.3-.7-.4-4.2-1.5-7.6-1.1-3.5-2-8.1-2-10.3-.1-2.2-.5-5.3-1.1-6.8-.6-1.6-1.1-5.7-1.1-9.3 0-3.6-.7-8.1-1.5-10-.8-1.9-1.4-6.2-1.4-9.4.1-7.7-1.3-9.9-4-6.6zM408.3 589c-3.1 1.3-3.8 5.3-2.3 12.5.6 3.3 1.5 9.8 1.7 14.5.6 9.9 1.9 12 7.3 12s7.4-1.9 6.6-6.1c-.4-1.9-1.1-7-1.5-11.4-.5-4.4-1.4-10-1.9-12.5-.6-2.5-1.3-5.7-1.7-7.3-.4-2.2-1.1-2.7-3.3-2.6-1.5 0-3.7.4-4.9.9zM95 590.4c-2.5.7-5.8 2-7.5 3l-3 1.7 3.1-.5c1.6-.3 7.9-1 14-1.6 6-.6 12.7-1.2 14.9-1.5 2.2-.2 4.7-.5 5.5-.5.8-.1.4-.6-1-1-3.9-1.2-21-1-26 .4zM669.5 590c1.1.5 6.5 2.6 12 4.6 8.9 3.2 19.3 8.3 29.5 14.5 2.8 1.7 2.4 1.1-2-3.1-6.2-5.8-16.1-11.1-25.9-13.9-7.5-2.2-16.9-3.6-13.6-2.1zM386 590.7c-5.8.9-7.3 1.5-9.6 4-1.9 2.1-2.4 3.7-2.4 7.9 0 2.9-.5 6.5-1 8-.9 2.2-.6 3.4 1.3 6.8 1.3 2.2 2.7 5.4 3.1 6.9.4 1.6 1.8 4 3.2 5.4 2.4 2.4 3 2.5 9.8 2 4-.4 7.9-.9 8.7-1.2.8-.3 2.6-3.1 4.1-6.3 2.6-5.5 2.7-6 1.6-12.7-.6-3.9-2-9.4-3.2-12.4-1.8-4.6-2.7-5.6-6.4-7.2-2.4-1.1-4.9-1.8-5.5-1.8-.7.1-2.3.3-3.7.6zm4.8 13.6c1.5 1.7 3.1 9.3 2.5 11.6-.6 2.5-4.8 4.4-6.1 2.8-1.6-2.1-2.5-12.6-1.2-14.3 1.5-1.7 3.4-1.8 4.8-.1zM99.5 596c-4.7 1-12.8 4.1-12.1 4.7.2.2 7.8-.5 16.8-1.6 9-1.2 16.8-2.1 17.4-2.2.5 0 0-.4-1.1-.9-2.5-1.1-15.6-1.1-21 0zM677 597.4c8.9 3.7 23.7 11.3 29.8 15.4 8.8 5.8 9.2 5.8 2.7-.3-7.1-6.7-15.2-11.4-25.7-14.9-9.7-3.3-14.5-3.4-6.8-.2zM239.2 602.2c-3.1 1.9-3.3 2.3-2.7 6.3.6 3.8.5 4.3-1.5 4.8-1.9.5-2.1 1-1.6 3.4.4 1.5 1 4.1 1.3 5.6.3 1.6 1.5 3.3 2.8 3.9 2.5 1.1 2.5 1.2 4.7 17.8 1.2 8.8 1.5 9.5 3.6 9.8 3.3.5 8-1.6 8.7-3.9.3-1 .1-3.5-.4-5.6-1.7-6-1.4-17.3.5-19.4 2.3-2.6 1-9.2-2.7-13-1.6-1.6-2.9-4-2.9-5.2 0-3-2.7-6.7-4.8-6.6-.9 0-3.2 1-5 2.1zM94.6 603c-6.6 2.1-10.1 4.6-5.1 3.6 3.2-.6 15.5-2.1 27-3.2 5.3-.5 6.4-.9 4.5-1.5-5.1-1.5-20.3-.9-26.4 1.1zM676.2 601.5c.2.2 5.3 2.8 11.3 5.9 6.1 3.1 14.7 8.3 19.3 11.6 9.6 6.9 9.4 4.7-.4-3.4-7.5-6.1-19.2-12.2-25.9-13.5-2.5-.5-4.5-.7-4.3-.6zM285.5 604.7c-1.1.2-4.1 2.3-6.8 4.6l-4.8 4.2.9 9.5c1 10.3 4 19.7 6.7 21.3 1 .5 4.3 1.1 7.4 1.3 4.4.2 6.5-.2 9.6-1.9 5.2-2.9 8.1-8.1 6.6-12-1.4-3.6-3-3.4-8.5.8-5.4 4.1-6.9 4.3-9 1.3-3.9-5.5-.9-8.3 8.8-8.3h7.1l.3-3.8c.2-2.7-.5-5.2-2.7-9.1-1.7-3-3.8-5.9-4.6-6.6-1.6-1.3-7.4-2-11-1.3zm6.3 10.5c.7.7 1.2 2.3 1.2 3.6 0 1.9-.5 2.3-2.2 2-2.3-.3-3.4-2.8-2.4-5.4.7-1.7 1.8-1.8 3.4-.2zM93.6 607.6c-2.6.9-4.6 1.7-4.4 1.9.2.2 8.9.1 19.3-.2 17.1-.6 18.6-.8 15-1.9-5.6-1.8-23.9-1.6-29.9.2zM678.1 607.9c0 .3 4.6 2.8 10.1 5.5 5.6 2.8 14.1 7.8 19 11.3 5.3 3.7 8.4 5.5 7.8 4.3-1.9-3.5-14.2-13-21.5-16.5-6.7-3.3-15.6-6-15.4-4.6zM156.2 610.7c-4.9 2.1-6.4 3.2-6.9 5.2-.3 1.4-1.4 3.5-2.4 4.6-1 1.1-1.7 3.4-1.7 5 .1 1.7-.2 4-.6 5.1-.3 1.2-.2 5.9.3 10.5.8 7.2 1.5 9.3 4.7 14.2 3.3 5.1 5.8 7.2 13.4 11.5 2.8 1.6 11.3 1 13.6-.9 1.7-1.4 1.7-3.3 0-8.4-1.4-4-1.5-4-7.3-4.5-5.7-.5-5.8-.5-8-5-2.8-6-3.6-13.3-1.9-19.5 1.2-4.6 1.5-5 4.7-5.3 6.4-.6 7.9-6.8 3-12.1-1.6-1.7-3.3-3.1-3.8-3-.4 0-3.6 1.2-7.1 2.6zM96.3 612.3c-2.3.7-4.4 1.4-4.6 1.7-.3.3 8.5.6 19.6.6 19 .2 19.9.1 15.7-1.3-6-2-25.3-2.6-30.7-1z"/><path d="M685.8 616.9c4.5 2.2 8.2 4.2 8.2 4.5 0 .2-2.3-.4-5-1.5-9.8-3.7-9.7-2 .2 3.4 5.3 2.8 13.2 7.7 17.5 10.7 4.3 3 8.3 5.7 8.8 5.9 2.4.9-8.5-9.3-13.5-12.7-6.9-4.5-8.4-5.9-4.5-3.9 1.7.8 6.5 4 10.7 7.1 9.3 6.7 9.2 4.7-.2-3.2-7.8-6.5-20.5-13.2-26.5-13.9-3.7-.5-3.3-.2 4.3 3.6zM217.5 616.5c-2.2.8-4.1 1.5-4.2 1.5-.2 0-1 1.6-1.8 3.6-3.6 8.6-.5 16.9 6.6 18 4.3.7 8.1 3.7 7.3 5.8-.9 2.3-3.5 2.8-5.4 1.1-.9-.8-2.1-1.5-2.6-1.5-1.4 0-5.8 8.5-5.1 9.7.9 1.4 6.2 2.5 11.9 2.4 9.9-.2 14.6-6.2 11.8-15.4-2-7-3.4-8.4-9.4-9.7-6-1.2-8-2.8-7-5.5.6-1.4 1.5-1.6 5.9-1l5.2.6.6-4.3c.3-2.4.3-4.6-.1-5-1.6-1.5-9.8-1.7-13.7-.3zM101.5 618.5c-3.3.9-6.4 2.1-7 2.7-.7.8-.5.9.8.4 1-.3 11.2-.6 22.5-.7 19.6-.1 20.4-.2 15.7-1.5-7.8-2.2-24.9-2.7-32-.9zM193.2 621.3c-.7.8-3.9 1.7-7.2 2-3.4.3-6.7 1-7.4 1.6-2.1 1.8-2.4 6.5-1.4 18.6l1 11 4.1 4.3c5 5.1 8 6.1 10.8 3.6 1.5-1.3 3.9-1.9 9.1-2.1 4.4-.2 7.5-.8 8-1.5 1.1-1.8 1-6.6-.2-8.7-.5-1-1.4-4.5-1.9-7.7-.6-3.2-1.6-7.9-2.2-10.4-.5-2.5-1.3-6.1-1.7-8-.7-3.3-1-3.5-5.3-3.8-3-.2-5 .2-5.7 1.1zm2.2 17.1c3.4 11.7 1 17-4.7 10.6-2.7-3-2.9-3.7-2.2-8.4 1.2-9.2 4.6-10.3 6.9-2.2zM105.5 624.3c-10.5 2.7-8.6 3.2 11.8 2.9 26.9-.4 27.6-.4 20.7-2-8.2-1.9-26.6-2.4-32.5-.9zM690.8 629.4c6.2 3.6 14.5 8.8 18.3 11.6 5.7 4.1 6.7 4.6 5.3 2.5-4.4-6.8-23-18.6-31.4-20.1-2.7-.5-.8.9 7.8 6zM105.7 630.1c-3.5.8-9.7 3.5-9.7 4.3 0 .1 2.1-.1 4.8-.5 2.6-.4 9.9-1 16.2-1.4 6.3-.3 14-.9 17-1.2 4.9-.6 5.2-.7 2.5-1.4-4.3-1-26.3-.9-30.8.2zM690 635.3c5.3 2.9 13.3 7.8 17.8 11 8.7 6.1 10.6 6.4 4.5.6-9-8.4-23.7-16.9-29.3-16.9-1.8 0 .2 1.5 7 5.3zM110.4 635.1c-5.5.9-15 4.6-14.2 5.5.3.3 4.6-.2 9.4-1 4.9-.8 11.6-1.8 14.9-2.1 3.3-.3 7.8-.9 10-1.2l4-.7-3-.7c-4.1-.9-14.9-.8-21.1.2zM677 636.2c13.9 6.2 23.9 11.3 29.8 15.1 8.3 5.4 8.5 3.8.4-2.6-9-7-24.3-13.8-30.6-13.6-1.9 0-1.8.1.4 1.1zM107.2 641c-5.1 1.2-12.2 4.1-12.2 4.9 0 .4 3 .2 6.8-.5 3.7-.7 12.3-1.8 19.1-2.5 7.6-.8 11.7-1.6 10.5-2-2.5-1-20-.9-24.2.1zM694.3 649.9c5.9 3.3 13 7.6 15.8 9.6 6.3 4.5 4.5 1.5-2.6-4.5-6.2-5.1-17.5-11-21.2-11-2.2 0-.4 1.4 8 5.9zM104.1 647c-3.4 1-7 2.4-7.8 3.2-1.3 1.4-.6 1.4 5.9.2 4-.7 8.7-1.3 10.3-1.2 1.8 0 .9.4-2.3.9-5 .9-15.7 4.8-14.9 5.5.2.2 6.4-.5 13.8-1.6s15.1-2.1 17.2-2.2c2-.1 3.7-.5 3.7-.9 0-.7-3.7-1.4-11.5-2.2-1.6-.1 1.3-.7 6.5-1.2 11.7-1 9-2.3-5-2.3-6.3 0-11.7.6-15.9 1.8zM113.8 655c-7.9 1-13.9 2.8-16.7 4.9-2.4 1.8-2.3 1.8 4.3.6 3.8-.7 11.9-1.9 18.2-2.6 6.3-.7 11.1-1.6 10.6-2-1.2-1.2-10.5-1.7-16.4-.9zM106.5 662.4c-2.7.7-6.2 1.8-7.7 2.4-3.1 1.3-5 3.7-2.2 2.9 2.7-.8 12.3-2.3 23.9-3.8 6.7-.8 9.3-1.5 8-2-3.1-1.2-16.5-.9-22 .5zM102.8 669.5c-4.9 1.6-8.3 4.4-3.7 3.1 1.3-.4 10.2-.9 19.7-1.3 12.5-.4 17-.9 16.2-1.7-1.8-1.8-26.6-1.8-32.2-.1zM109.5 674c-5 .9-13.9 3.9-13.3 4.5.2.2 6.4-.3 13.8-1.1 7.4-.7 14.6-1.4 16-1.4 2.1-.1 2.2-.2.9-1-2.5-1.4-11.8-2-17.4-1zM745.5 571.1c-1 1.5.3 2.5 1.6 1.2.7-.7.7-1.3.1-1.7-.6-.3-1.4-.1-1.7.5zM50.8 600.8c-5 1.8-7 3.2-4.6 3.2 2.4 0 8.2-2.1 9.8-3.6 1.8-1.8.7-1.7-5.2.4zM61.6 603.7c-9.9 5.3-10.3 7-.4 2.4 6.2-2.9 12.3-7.1 10.3-7-.5 0-5 2.1-9.9 4.6zM759 649.8c.1.4 3 2.5 6.6 4.7 8 4.9 16.5 12.8 19.2 18.1 1.2 2.1 2.1 3.3 2.2 2.6.1-4.6-9-16.1-17-21.2-4.8-3.1-11-5.5-11-4.2zM743.7 683.9c5.6 2.7 12.3 6.4 14.8 8.1 5.6 3.9 6.7 3.4 2.3-.9-3.9-3.9-12.1-8.2-19.7-10.5-8.8-2.6-8.2-1.9 2.6 3.3zM737 689.6c0 .2 2.6 1.7 5.8 3.3 3.1 1.6 9.2 5.4 13.5 8.5 4.3 3 7.3 4.7 6.7 3.7-1.5-3-9.7-9.7-14.3-11.9-4.4-2.1-11.7-4.3-11.7-3.6zM744 698.6c4.1 2.2 10.1 5.9 13.3 8.3 3.2 2.3 6 4.1 6.3 3.9.2-.2-1.8-2.5-4.4-5-5.2-5.2-13.3-9.6-19-10.5-3.2-.5-2.7-.1 3.8 3.3z"/><path d="M750.1 706.7c4.7 2.7 10.1 6 11.9 7.3 3 2.1 3.1 2.1 2.2.3-2.2-4.1-12.9-10.8-18.7-11.8-3.6-.6-3.2-.2 4.6 4.2zM737 716.3c.3.3 4.3 2.5 8.9 4.8 4.6 2.3 11.3 6.6 14.7 9.6 3.5 2.9 6.4 5 6.4 4.6 0-.5-2-3.2-4.6-6-3.2-3.7-6.6-6.3-11.7-8.7-6.4-3.1-15.1-5.8-13.7-4.3zM42 666.4c-6.6 3.5-13.7 10.1-17 16-3.9 6.6-3.9 9.3-.1 3.5 4.9-7.2 7.2-9.4 16.5-15.8 9-6.1 9.3-8.2.6-3.7zM54 681.4c-4.9 1.7-12 6.7-15.8 11.1-4.4 5-4 6.7.6 2.3 2-2 7.3-5.9 11.7-8.8 10.4-6.7 10.9-7.3 3.5-4.6zM137 694.1c0 .5.5.7 1 .4.6-.3 1-.8 1-1.1 0-.2-.4-.4-1-.4-.5 0-1 .5-1 1.1zM64.5 700.9c-4.7 1.2-11 4.7-15 8.6-5.1 4.7-3.8 5.4 2.2 1.2 2.6-1.9 7.4-4.8 10.6-6.6 3.1-1.8 5.7-3.4 5.7-3.7 0-.2-.1-.4-.2-.3-.2.1-1.6.4-3.3.8zM61.5 706.9c-6.4 3.1-13.8 8.9-15.7 12.4-1.3 2.4-1.7 2.7 6-3.2 2.4-1.9 7.8-5.3 12-7.7 8.6-4.9 7-6-2.3-1.5zM58.2 718.5c-6.3 2.9-11.9 7-13.4 9.9-1 1.8-.9 1.9.4.8.8-.6 6.2-3.9 11.9-7.2 10.4-6 11.1-8.2 1.1-3.5zM67.3 731c-6.5 1.5-14.9 6.5-20 11.8-2.9 3-5.3 5.9-5.3 6.4s3-1.6 6.8-4.7c3.7-3.1 10.3-7.4 14.7-9.6 10.3-5.2 10.7-5.6 3.8-3.9z"/></svg>